  0
SECTION
  2
HEADER
  9
$ACADVER
  1
AC1009
  9
$EXTMIN
 10
0.0
 20
0.0
 30
0.0
  9
$EXTMAX
 10
1000.0
 20
1000.0
 30
0.0
  9
$FILLMODE
 70
 0
  9
$SPLFRAME
 70
 1
  0
ENDSEC
  0
SECTION
  2
TABLES
  0
TABLE
  2
LAYER
 70
1
  0
LAYER
  2
0
 70
     0
 62
     7
  6
CONTINUOUS
  0
ENDTAB
  0
ENDSEC
  0
SECTION
  2
ENTITIES
  0
POLYLINE
  8
0
 62
     0
 66
     1
 10
0
 20
0
 30
0.0
 70
     1
 40
0.566929
 41
0.566929
  0
VERTEX
  8
0
 10
18.9246
 20
10.0004
 30
0.0
 40
0.2
 41
0.2
  0
VERTEX
  8
0
 10
118.925
 20
10.0004
 30
0.0
 40
0.2
 41
0.2
  0
VERTEX
  8
0
 10
118.925
 20
19.9995
 30
0.0
 40
0.2
 41
0.2
  0
VERTEX
  8
0
 10
18.9246
 20
19.9995
 30
0.0
 40
0.2
 41
0.2
  0
VERTEX
  8
0
 10
18.9246
 20
10.0004
 30
0.0
 40
0.2
 41
0.2
  0
SEQEND
 8
0
  0
TEXT
  8
0
 62
     0
 10
52.2541
 20
12.9902
 30
0
 40
10.0013
  1
100mm
 50
0
  7
Helvetica
  0
POLYLINE
  8
0
 62
     0
 66
     1
 10
0
 20
0
 30
0.0
 70
     1
 40
0.566929
 41
0.566929
  0
VERTEX
  8
0
 10
21.9246
 20
21.7
 30
0.0
 40
0.2
 41
0.2
  0
VERTEX
  8
0
 10
46.4249
 20
21.7
 30
0.0
 40
0.2
 41
0.2
  0
VERTEX
  8
0
 10
46.4414
 20
21.7
 30
0.0
 40
0.2
 41
0.2
  0
VERTEX
  8
0
 10
46.4951
 20
21.7303
 30
0.0
 40
0.2
 41
0.2
  0
VERTEX
  8
0
 10
46.5254
 20
21.784
 30
0.0
 40
0.2
 41
0.2
  0
VERTEX
  8
0
 10
46.5254
 20
21.8006
 30
0.0
 40
0.2
 41
0.2
  0
VERTEX
  8
0
 10
46.5254
 20
24.6999
 30
0.0
 40
0.2
 41
0.2
  0
VERTEX
  8
0
 10
46.5254
 20
24.711
 30
0.0
 40
0.2
 41
0.2
  0
VERTEX
  8
0
 10
46.5102
 20
24.7427
 30
0.0
 40
0.2
 41
0.2
  0
VERTEX
  8
0
 10
46.4866
 20
24.7385
 30
0.0
 40
0.2
 41
0.2
  0
VERTEX
  8
0
 10
46.4827
 20
24.7151
 30
0.0
 40
0.2
 41
0.2
  0
VERTEX
  8
0
 10
46.5145
 20
24.6999
 30
0.0
 40
0.2
 41
0.2
  0
VERTEX
  8
0
 10
46.5254
 20
24.6999
 30
0.0
 40
0.2
 41
0.2
  0
VERTEX
  8
0
 10
91.3253
 20
24.6999
 30
0.0
 40
0.2
 41
0.2
  0
VERTEX
  8
0
 10
91.3349
 20
24.6999
 30
0.0
 40
0.2
 41
0.2
  0
VERTEX
  8
0
 10
91.3666
 20
24.7151
 30
0.0
 40
0.2
 41
0.2
  0
VERTEX
  8
0
 10
91.3624
 20
24.7385
 30
0.0
 40
0.2
 41
0.2
  0
VERTEX
  8
0
 10
91.3391
 20
24.7427
 30
0.0
 40
0.2
 41
0.2
  0
VERTEX
  8
0
 10
91.3253
 20
24.711
 30
0.0
 40
0.2
 41
0.2
  0
VERTEX
  8
0
 10
91.3253
 20
24.6999
 30
0.0
 40
0.2
 41
0.2
  0
VERTEX
  8
0
 10
91.3253
 20
21.8006
 30
0.0
 40
0.2
 41
0.2
  0
VERTEX
  8
0
 10
91.3253
 20
21.784
 30
0.0
 40
0.2
 41
0.2
  0
VERTEX
  8
0
 10
91.3543
 20
21.7303
 30
0.0
 40
0.2
 41
0.2
  0
VERTEX
  8
0
 10
91.4065
 20
21.7
 30
0.0
 40
0.2
 41
0.2
  0
VERTEX
  8
0
 10
91.4245
 20
21.7
 30
0.0
 40
0.2
 41
0.2
  0
VERTEX
  8
0
 10
115.925
 20
21.7
 30
0.0
 40
0.2
 41
0.2
  0
VERTEX
  8
0
 10
115.941
 20
21.7
 30
0.0
 40
0.2
 41
0.2
  0
VERTEX
  8
0
 10
115.995
 20
21.7303
 30
0.0
 40
0.2
 41
0.2
  0
VERTEX
  8
0
 10
116.025
 20
21.784
 30
0.0
 40
0.2
 41
0.2
  0
VERTEX
  8
0
 10
116.025
 20
21.8006
 30
0.0
 40
0.2
 41
0.2
  0
VERTEX
  8
0
 10
116.025
 20
24.8006
 30
0.0
 40
0.2
 41
0.2
  0
VERTEX
  8
0
 10
116.025
 20
59.6995
 30
0.0
 40
0.2
 41
0.2
  0
VERTEX
  8
0
 10
116.025
 20
59.7105
 30
0.0
 40
0.2
 41
0.2
  0
VERTEX
  8
0
 10
116.01
 20
59.7422
 30
0.0
 40
0.2
 41
0.2
  0
VERTEX
  8
0
 10
115.987
 20
59.738
 30
0.0
 40
0.2
 41
0.2
  0
VERTEX
  8
0
 10
115.983
 20
59.7147
 30
0.0
 40
0.2
 41
0.2
  0
VERTEX
  8
0
 10
116.014
 20
59.6995
 30
0.0
 40
0.2
 41
0.2
  0
VERTEX
  8
0
 10
116.025
 20
59.6995
 30
0.0
 40
0.2
 41
0.2
  0
VERTEX
  8
0
 10
118.925
 20
59.6995
 30
0.0
 40
0.2
 41
0.2
  0
VERTEX
  8
0
 10
118.941
 20
59.6995
 30
0.0
 40
0.2
 41
0.2
  0
VERTEX
  8
0
 10
118.995
 20
59.7299
 30
0.0
 40
0.2
 41
0.2
  0
VERTEX
  8
0
 10
119.025
 20
59.7835
 30
0.0
 40
0.2
 41
0.2
  0
VERTEX
  8
0
 10
119.025
 20
59.8001
 30
0.0
 40
0.2
 41
0.2
  0
VERTEX
  8
0
 10
119.025
 20
104.8
 30
0.0
 40
0.2
 41
0.2
  0
VERTEX
  8
0
 10
119.025
 20
104.818
 30
0.0
 40
0.2
 41
0.2
  0
VERTEX
  8
0
 10
118.995
 20
104.871
 30
0.0
 40
0.2
 41
0.2
  0
VERTEX
  8
0
 10
118.941
 20
104.9
 30
0.0
 40
0.2
 41
0.2
  0
VERTEX
  8
0
 10
118.925
 20
104.9
 30
0.0
 40
0.2
 41
0.2
  0
VERTEX
  8
0
 10
116.025
 20
104.9
 30
0.0
 40
0.2
 41
0.2
  0
VERTEX
  8
0
 10
116.014
 20
104.9
 30
0.0
 40
0.2
 41
0.2
  0
VERTEX
  8
0
 10
115.983
 20
104.886
 30
0.0
 40
0.2
 41
0.2
  0
VERTEX
  8
0
 10
115.987
 20
104.863
 30
0.0
 40
0.2
 41
0.2
  0
VERTEX
  8
0
 10
116.01
 20
104.859
 30
0.0
 40
0.2
 41
0.2
  0
VERTEX
  8
0
 10
116.025
 20
104.891
 30
0.0
 40
0.2
 41
0.2
  0
VERTEX
  8
0
 10
116.025
 20
104.9
 30
0.0
 40
0.2
 41
0.2
  0
VERTEX
  8
0
 10
116.025
 20
128.7
 30
0.0
 40
0.2
 41
0.2
  0
VERTEX
  8
0
 10
116.025
 20
128.712
 30
0.0
 40
0.2
 41
0.2
  0
VERTEX
  8
0
 10
116.01
 20
128.743
 30
0.0
 40
0.2
 41
0.2
  0
VERTEX
  8
0
 10
115.987
 20
128.738
 30
0.0
 40
0.2
 41
0.2
  0
VERTEX
  8
0
 10
115.983
 20
128.716
 30
0.0
 40
0.2
 41
0.2
  0
VERTEX
  8
0
 10
116.014
 20
128.7
 30
0.0
 40
0.2
 41
0.2
  0
VERTEX
  8
0
 10
116.025
 20
128.7
 30
0.0
 40
0.2
 41
0.2
  0
VERTEX
  8
0
 10
118.925
 20
128.7
 30
0.0
 40
0.2
 41
0.2
  0
VERTEX
  8
0
 10
118.941
 20
128.7
 30
0.0
 40
0.2
 41
0.2
  0
VERTEX
  8
0
 10
118.995
 20
128.729
 30
0.0
 40
0.2
 41
0.2
  0
VERTEX
  8
0
 10
119.025
 20
128.783
 30
0.0
 40
0.2
 41
0.2
  0
VERTEX
  8
0
 10
119.025
 20
128.8
 30
0.0
 40
0.2
 41
0.2
  0
VERTEX
  8
0
 10
119.025
 20
173.8
 30
0.0
 40
0.2
 41
0.2
  0
VERTEX
  8
0
 10
119.025
 20
173.817
 30
0.0
 40
0.2
 41
0.2
  0
VERTEX
  8
0
 10
118.995
 20
173.871
 30
0.0
 40
0.2
 41
0.2
  0
VERTEX
  8
0
 10
118.941
 20
173.9
 30
0.0
 40
0.2
 41
0.2
  0
VERTEX
  8
0
 10
118.925
 20
173.9
 30
0.0
 40
0.2
 41
0.2
  0
VERTEX
  8
0
 10
116.025
 20
173.9
 30
0.0
 40
0.2
 41
0.2
  0
VERTEX
  8
0
 10
116.014
 20
173.9
 30
0.0
 40
0.2
 41
0.2
  0
VERTEX
  8
0
 10
115.983
 20
173.886
 30
0.0
 40
0.2
 41
0.2
  0
VERTEX
  8
0
 10
115.987
 20
173.863
 30
0.0
 40
0.2
 41
0.2
  0
VERTEX
  8
0
 10
116.01
 20
173.859
 30
0.0
 40
0.2
 41
0.2
  0
VERTEX
  8
0
 10
116.025
 20
173.891
 30
0.0
 40
0.2
 41
0.2
  0
VERTEX
  8
0
 10
116.025
 20
173.9
 30
0.0
 40
0.2
 41
0.2
  0
VERTEX
  8
0
 10
116.025
 20
208.8
 30
0.0
 40
0.2
 41
0.2
  0
VERTEX
  8
0
 10
116.025
 20
208.818
 30
0.0
 40
0.2
 41
0.2
  0
VERTEX
  8
0
 10
115.995
 20
208.871
 30
0.0
 40
0.2
 41
0.2
  0
VERTEX
  8
0
 10
115.941
 20
208.899
 30
0.0
 40
0.2
 41
0.2
  0
VERTEX
  8
0
 10
115.925
 20
208.899
 30
0.0
 40
0.2
 41
0.2
  0
VERTEX
  8
0
 10
27.9246
 20
208.899
 30
0.0
 40
0.2
 41
0.2
  0
VERTEX
  8
0
 10
27.9411
 20
208.899
 30
0.0
 40
0.2
 41
0.2
  0
VERTEX
  8
0
 10
27.9949
 20
208.871
 30
0.0
 40
0.2
 41
0.2
  0
VERTEX
  8
0
 10
28.0252
 20
208.818
 30
0.0
 40
0.2
 41
0.2
  0
VERTEX
  8
0
 10
28.0252
 20
208.8
 30
0.0
 40
0.2
 41
0.2
  0
VERTEX
  8
0
 10
28.0252
 20
208.97
 30
0.0
 40
0.2
 41
0.2
  0
VERTEX
  8
0
 10
27.999
 20
209.474
 30
0.0
 40
0.2
 41
0.2
  0
VERTEX
  8
0
 10
27.926
 20
210.14
 30
0.0
 40
0.2
 41
0.2
  0
VERTEX
  8
0
 10
27.8033
 20
210.797
 30
0.0
 40
0.2
 41
0.2
  0
VERTEX
  8
0
 10
27.6324
 20
211.442
 30
0.0
 40
0.2
 41
0.2
  0
VERTEX
  8
0
 10
27.4161
 20
212.073
 30
0.0
 40
0.2
 41
0.2
  0
VERTEX
  8
0
 10
27.1529
 20
212.688
 30
0.0
 40
0.2
 41
0.2
  0
VERTEX
  8
0
 10
26.8442
 20
213.283
 30
0.0
 40
0.2
 41
0.2
  0
VERTEX
  8
0
 10
26.5837
 20
213.716
 30
0.0
 40
0.2
 41
0.2
  0
VERTEX
  8
0
 10
26.4914
 20
213.855
 30
0.0
 40
0.2
 41
0.2
  0
VERTEX
  8
0
 10
26.3977
 20
213.996
 30
0.0
 40
0.2
 41
0.2
  0
VERTEX
  8
0
 10
26.0959
 20
214.401
 30
0.0
 40
0.2
 41
0.2
  0
VERTEX
  8
0
 10
25.6646
 20
214.913
 30
0.0
 40
0.2
 41
0.2
  0
VERTEX
  8
0
 10
25.1974
 20
215.393
 30
0.0
 40
0.2
 41
0.2
  0
VERTEX
  8
0
 10
24.6972
 20
215.835
 30
0.0
 40
0.2
 41
0.2
  0
VERTEX
  8
0
 10
24.1667
 20
216.239
 30
0.0
 40
0.2
 41
0.2
  0
VERTEX
  8
0
 10
23.6058
 20
216.604
 30
0.0
 40
0.2
 41
0.2
  0
VERTEX
  8
0
 10
23.0188
 20
216.928
 30
0.0
 40
0.2
 41
0.2
  0
VERTEX
  8
0
 10
22.5626
 20
217.144
 30
0.0
 40
0.2
 41
0.2
  0
VERTEX
  8
0
 10
22.4083
 20
217.208
 30
0.0
 40
0.2
 41
0.2
  0
VERTEX
  8
0
 10
22.0982
 20
217.336
 30
0.0
 40
0.2
 41
0.2
  0
VERTEX
  8
0
 10
21.1322
 20
217.628
 30
0.0
 40
0.2
 41
0.2
  0
VERTEX
  8
0
 10
19.8162
 20
217.857
 30
0.0
 40
0.2
 41
0.2
  0
VERTEX
  8
0
 10
18.4809
 20
217.89
 30
0.0
 40
0.2
 41
0.2
  0
VERTEX
  8
0
 10
17.4777
 20
217.791
 30
0.0
 40
0.2
 41
0.2
  0
VERTEX
  8
0
 10
17.1497
 20
217.726
 30
0.0
 40
0.2
 41
0.2
  0
VERTEX
  8
0
 10
16.9843
 20
217.694
 30
0.0
 40
0.2
 41
0.2
  0
VERTEX
  8
0
 10
16.4937
 20
217.57
 30
0.0
 40
0.2
 41
0.2
  0
VERTEX
  8
0
 10
15.8557
 20
217.368
 30
0.0
 40
0.2
 41
0.2
  0
VERTEX
  8
0
 10
15.2342
 20
217.12
 30
0.0
 40
0.2
 41
0.2
  0
VERTEX
  8
0
 10
14.6348
 20
216.826
 30
0.0
 40
0.2
 41
0.2
  0
VERTEX
  8
0
 10
14.0588
 20
216.49
 30
0.0
 40
0.2
 41
0.2
  0
VERTEX
  8
0
 10
13.5062
 20
216.112
 30
0.0
 40
0.2
 41
0.2
  0
VERTEX
  8
0
 10
12.9839
 20
215.693
 30
0.0
 40
0.2
 41
0.2
  0
VERTEX
  8
0
 10
12.6091
 20
215.354
 30
0.0
 40
0.2
 41
0.2
  0
VERTEX
  8
0
 10
12.4906
 20
215.234
 30
0.0
 40
0.2
 41
0.2
  0
VERTEX
  8
0
 10
12.3706
 20
215.116
 30
0.0
 40
0.2
 41
0.2
  0
VERTEX
  8
0
 10
12.0317
 20
214.743
 30
0.0
 40
0.2
 41
0.2
  0
VERTEX
  8
0
 10
11.6141
 20
214.219
 30
0.0
 40
0.2
 41
0.2
  0
VERTEX
  8
0
 10
11.2352
 20
213.668
 30
0.0
 40
0.2
 41
0.2
  0
VERTEX
  8
0
 10
10.9003
 20
213.09
 30
0.0
 40
0.2
 41
0.2
  0
VERTEX
  8
0
 10
10.6068
 20
212.491
 30
0.0
 40
0.2
 41
0.2
  0
VERTEX
  8
0
 10
10.3587
 20
211.869
 30
0.0
 40
0.2
 41
0.2
  0
VERTEX
  8
0
 10
10.1562
 20
211.231
 30
0.0
 40
0.2
 41
0.2
  0
VERTEX
  8
0
 10
10.0321
 20
210.741
 30
0.0
 40
0.2
 41
0.2
  0
VERTEX
  8
0
 10
10.0004
 20
210.575
 30
0.0
 40
0.2
 41
0.2
  0
VERTEX
  8
0
 10
9.93429
 20
210.247
 30
0.0
 40
0.2
 41
0.2
  0
VERTEX
  8
0
 10
9.83506
 20
209.244
 30
0.0
 40
0.2
 41
0.2
  0
VERTEX
  8
0
 10
9.86815
 20
207.909
 30
0.0
 40
0.2
 41
0.2
  0
VERTEX
  8
0
 10
10.0969
 20
206.593
 30
0.0
 40
0.2
 41
0.2
  0
VERTEX
  8
0
 10
10.389
 20
205.628
 30
0.0
 40
0.2
 41
0.2
  0
VERTEX
  8
0
 10
10.5172
 20
205.318
 30
0.0
 40
0.2
 41
0.2
  0
VERTEX
  8
0
 10
10.5806
 20
205.164
 30
0.0
 40
0.2
 41
0.2
  0
VERTEX
  8
0
 10
10.7969
 20
204.706
 30
0.0
 40
0.2
 41
0.2
  0
VERTEX
  8
0
 10
11.1208
 20
204.119
 30
0.0
 40
0.2
 41
0.2
  0
VERTEX
  8
0
 10
11.486
 20
203.56
 30
0.0
 40
0.2
 41
0.2
  0
VERTEX
  8
0
 10
11.8897
 20
203.028
 30
0.0
 40
0.2
 41
0.2
  0
VERTEX
  8
0
 10
12.3321
 20
202.528
 30
0.0
 40
0.2
 41
0.2
  0
VERTEX
  8
0
 10
12.8116
 20
202.061
 30
0.0
 40
0.2
 41
0.2
  0
VERTEX
  8
0
 10
13.3242
 20
201.629
 30
0.0
 40
0.2
 41
0.2
  0
VERTEX
  8
0
 10
13.7294
 20
201.327
 30
0.0
 40
0.2
 41
0.2
  0
VERTEX
  8
0
 10
13.87
 20
201.234
 30
0.0
 40
0.2
 41
0.2
  0
VERTEX
  8
0
 10
14.0091
 20
201.141
 30
0.0
 40
0.2
 41
0.2
  0
VERTEX
  8
0
 10
14.4418
 20
200.882
 30
0.0
 40
0.2
 41
0.2
  0
VERTEX
  8
0
 10
15.0372
 20
200.574
 30
0.0
 40
0.2
 41
0.2
  0
VERTEX
  8
0
 10
15.6518
 20
200.31
 30
0.0
 40
0.2
 41
0.2
  0
VERTEX
  8
0
 10
16.2829
 20
200.092
 30
0.0
 40
0.2
 41
0.2
  0
VERTEX
  8
0
 10
16.9278
 20
199.922
 30
0.0
 40
0.2
 41
0.2
  0
VERTEX
  8
0
 10
17.5852
 20
199.799
 30
0.0
 40
0.2
 41
0.2
  0
VERTEX
  8
0
 10
18.2507
 20
199.726
 30
0.0
 40
0.2
 41
0.2
  0
VERTEX
  8
0
 10
18.7551
 20
199.7
 30
0.0
 40
0.2
 41
0.2
  0
VERTEX
  8
0
 10
18.9246
 20
199.7
 30
0.0
 40
0.2
 41
0.2
  0
VERTEX
  8
0
 10
21.9246
 20
199.7
 30
0.0
 40
0.2
 41
0.2
  0
VERTEX
  8
0
 10
21.9122
 20
199.7
 30
0.0
 40
0.2
 41
0.2
  0
VERTEX
  8
0
 10
21.8777
 20
199.712
 30
0.0
 40
0.2
 41
0.2
  0
VERTEX
  8
0
 10
21.875
 20
199.713
 30
0.0
 40
0.2
 41
0.2
  0
VERTEX
  8
0
 10
21.8708
 20
199.716
 30
0.0
 40
0.2
 41
0.2
  0
VERTEX
  8
0
 10
21.8405
 20
199.747
 30
0.0
 40
0.2
 41
0.2
  0
VERTEX
  8
0
 10
21.8392
 20
199.749
 30
0.0
 40
0.2
 41
0.2
  0
VERTEX
  8
0
 10
21.8364
 20
199.753
 30
0.0
 40
0.2
 41
0.2
  0
VERTEX
  8
0
 10
21.8254
 20
199.789
 30
0.0
 40
0.2
 41
0.2
  0
VERTEX
  8
0
 10
21.8254
 20
199.8
 30
0.0
 40
0.2
 41
0.2
  0
VERTEX
  8
0
 10
21.8254
 20
199.813
 30
0.0
 40
0.2
 41
0.2
  0
VERTEX
  8
0
 10
21.8364
 20
199.847
 30
0.0
 40
0.2
 41
0.2
  0
VERTEX
  8
0
 10
21.8392
 20
199.85
 30
0.0
 40
0.2
 41
0.2
  0
VERTEX
  8
0
 10
21.8405
 20
199.854
 30
0.0
 40
0.2
 41
0.2
  0
VERTEX
  8
0
 10
21.8708
 20
199.886
 30
0.0
 40
0.2
 41
0.2
  0
VERTEX
  8
0
 10
21.875
 20
199.887
 30
0.0
 40
0.2
 41
0.2
  0
VERTEX
  8
0
 10
21.8777
 20
199.89
 30
0.0
 40
0.2
 41
0.2
  0
VERTEX
  8
0
 10
21.9122
 20
199.9
 30
0.0
 40
0.2
 41
0.2
  0
VERTEX
  8
0
 10
21.9246
 20
199.9
 30
0.0
 40
0.2
 41
0.2
  0
VERTEX
  8
0
 10
21.9067
 20
199.9
 30
0.0
 40
0.2
 41
0.2
  0
VERTEX
  8
0
 10
21.8543
 20
199.871
 30
0.0
 40
0.2
 41
0.2
  0
VERTEX
  8
0
 10
21.8254
 20
199.818
 30
0.0
 40
0.2
 41
0.2
  0
VERTEX
  8
0
 10
21.8254
 20
199.8
 30
0.0
 40
0.2
 41
0.2
  0
VERTEX
  8
0
 10
21.8254
 20
169.4
 30
0.0
 40
0.2
 41
0.2
  0
VERTEX
  8
0
 10
21.8254
 20
169.39
 30
0.0
 40
0.2
 41
0.2
  0
VERTEX
  8
0
 10
21.8392
 20
169.358
 30
0.0
 40
0.2
 41
0.2
  0
VERTEX
  8
0
 10
21.8626
 20
169.362
 30
0.0
 40
0.2
 41
0.2
  0
VERTEX
  8
0
 10
21.8667
 20
169.386
 30
0.0
 40
0.2
 41
0.2
  0
VERTEX
  8
0
 10
21.835
 20
169.4
 30
0.0
 40
0.2
 41
0.2
  0
VERTEX
  8
0
 10
21.8254
 20
169.4
 30
0.0
 40
0.2
 41
0.2
  0
VERTEX
  8
0
 10
18.9246
 20
169.4
 30
0.0
 40
0.2
 41
0.2
  0
VERTEX
  8
0
 10
18.9067
 20
169.4
 30
0.0
 40
0.2
 41
0.2
  0
VERTEX
  8
0
 10
18.8543
 20
169.37
 30
0.0
 40
0.2
 41
0.2
  0
VERTEX
  8
0
 10
18.8254
 20
169.318
 30
0.0
 40
0.2
 41
0.2
  0
VERTEX
  8
0
 10
18.8254
 20
169.3
 30
0.0
 40
0.2
 41
0.2
  0
VERTEX
  8
0
 10
18.8254
 20
124.301
 30
0.0
 40
0.2
 41
0.2
  0
VERTEX
  8
0
 10
18.8254
 20
124.284
 30
0.0
 40
0.2
 41
0.2
  0
VERTEX
  8
0
 10
18.8543
 20
124.23
 30
0.0
 40
0.2
 41
0.2
  0
VERTEX
  8
0
 10
18.9067
 20
124.2
 30
0.0
 40
0.2
 41
0.2
  0
VERTEX
  8
0
 10
18.9246
 20
124.2
 30
0.0
 40
0.2
 41
0.2
  0
VERTEX
  8
0
 10
21.8254
 20
124.2
 30
0.0
 40
0.2
 41
0.2
  0
VERTEX
  8
0
 10
21.835
 20
124.2
 30
0.0
 40
0.2
 41
0.2
  0
VERTEX
  8
0
 10
21.8667
 20
124.215
 30
0.0
 40
0.2
 41
0.2
  0
VERTEX
  8
0
 10
21.8626
 20
124.238
 30
0.0
 40
0.2
 41
0.2
  0
VERTEX
  8
0
 10
21.8392
 20
124.243
 30
0.0
 40
0.2
 41
0.2
  0
VERTEX
  8
0
 10
21.8254
 20
124.211
 30
0.0
 40
0.2
 41
0.2
  0
VERTEX
  8
0
 10
21.8254
 20
124.2
 30
0.0
 40
0.2
 41
0.2
  0
VERTEX
  8
0
 10
21.8254
 20
100.4
 30
0.0
 40
0.2
 41
0.2
  0
VERTEX
  8
0
 10
21.8254
 20
100.39
 30
0.0
 40
0.2
 41
0.2
  0
VERTEX
  8
0
 10
21.8392
 20
100.358
 30
0.0
 40
0.2
 41
0.2
  0
VERTEX
  8
0
 10
21.8626
 20
100.362
 30
0.0
 40
0.2
 41
0.2
  0
VERTEX
  8
0
 10
21.8667
 20
100.386
 30
0.0
 40
0.2
 41
0.2
  0
VERTEX
  8
0
 10
21.835
 20
100.4
 30
0.0
 40
0.2
 41
0.2
  0
VERTEX
  8
0
 10
21.8254
 20
100.4
 30
0.0
 40
0.2
 41
0.2
  0
VERTEX
  8
0
 10
18.9246
 20
100.4
 30
0.0
 40
0.2
 41
0.2
  0
VERTEX
  8
0
 10
18.9067
 20
100.4
 30
0.0
 40
0.2
 41
0.2
  0
VERTEX
  8
0
 10
18.8543
 20
100.371
 30
0.0
 40
0.2
 41
0.2
  0
VERTEX
  8
0
 10
18.8254
 20
100.318
 30
0.0
 40
0.2
 41
0.2
  0
VERTEX
  8
0
 10
18.8254
 20
100.3
 30
0.0
 40
0.2
 41
0.2
  0
VERTEX
  8
0
 10
18.8254
 20
55.3007
 30
0.0
 40
0.2
 41
0.2
  0
VERTEX
  8
0
 10
18.8254
 20
55.2842
 30
0.0
 40
0.2
 41
0.2
  0
VERTEX
  8
0
 10
18.8543
 20
55.2305
 30
0.0
 40
0.2
 41
0.2
  0
VERTEX
  8
0
 10
18.9067
 20
55.2002
 30
0.0
 40
0.2
 41
0.2
  0
VERTEX
  8
0
 10
18.9246
 20
55.2002
 30
0.0
 40
0.2
 41
0.2
  0
VERTEX
  8
0
 10
21.8254
 20
55.2002
 30
0.0
 40
0.2
 41
0.2
  0
VERTEX
  8
0
 10
21.835
 20
55.2002
 30
0.0
 40
0.2
 41
0.2
  0
VERTEX
  8
0
 10
21.8667
 20
55.2154
 30
0.0
 40
0.2
 41
0.2
  0
VERTEX
  8
0
 10
21.8626
 20
55.2387
 30
0.0
 40
0.2
 41
0.2
  0
VERTEX
  8
0
 10
21.8392
 20
55.2429
 30
0.0
 40
0.2
 41
0.2
  0
VERTEX
  8
0
 10
21.8254
 20
55.2111
 30
0.0
 40
0.2
 41
0.2
  0
VERTEX
  8
0
 10
21.8254
 20
55.2002
 30
0.0
 40
0.2
 41
0.2
  0
VERTEX
  8
0
 10
21.8254
 20
24.8006
 30
0.0
 40
0.2
 41
0.2
  0
VERTEX
  8
0
 10
21.8254
 20
21.8006
 30
0.0
 40
0.2
 41
0.2
  0
VERTEX
  8
0
 10
21.8254
 20
21.784
 30
0.0
 40
0.2
 41
0.2
  0
VERTEX
  8
0
 10
21.8543
 20
21.7303
 30
0.0
 40
0.2
 41
0.2
  0
VERTEX
  8
0
 10
21.9067
 20
21.7
 30
0.0
 40
0.2
 41
0.2
  0
VERTEX
  8
0
 10
21.9246
 20
21.7
 30
0.0
 40
0.2
 41
0.2
  0
SEQEND
 8
0
  0
POLYLINE
  8
0
 62
     5
 66
     1
 10
0
 20
0
 30
0.0
 70
     1
 40
0.566929
 41
0.566929
  0
VERTEX
  8
0
 10
13.0252
 20
208.899
 30
0.0
 40
0.2
 41
0.2
  0
VERTEX
  8
0
 10
13.0252
 20
209.11
 30
0.0
 40
0.2
 41
0.2
  0
VERTEX
  8
0
 10
13.0845
 20
209.743
 30
0.0
 40
0.2
 41
0.2
  0
VERTEX
  8
0
 10
13.2636
 20
210.563
 30
0.0
 40
0.2
 41
0.2
  0
VERTEX
  8
0
 10
13.5571
 20
211.35
 30
0.0
 40
0.2
 41
0.2
  0
VERTEX
  8
0
 10
13.8479
 20
211.913
 30
0.0
 40
0.2
 41
0.2
  0
VERTEX
  8
0
 10
13.9623
 20
212.09
 30
0.0
 40
0.2
 41
0.2
  0
VERTEX
  8
0
 10
14.0753
 20
212.267
 30
0.0
 40
0.2
 41
0.2
  0
VERTEX
  8
0
 10
14.4666
 20
212.766
 30
0.0
 40
0.2
 41
0.2
  0
VERTEX
  8
0
 10
15.0606
 20
213.36
 30
0.0
 40
0.2
 41
0.2
  0
VERTEX
  8
0
 10
15.7331
 20
213.863
 30
0.0
 40
0.2
 41
0.2
  0
VERTEX
  8
0
 10
16.2829
 20
214.18
 30
0.0
 40
0.2
 41
0.2
  0
VERTEX
  8
0
 10
16.4744
 20
214.267
 30
0.0
 40
0.2
 41
0.2
  0
VERTEX
  8
0
 10
16.6646
 20
214.355
 30
0.0
 40
0.2
 41
0.2
  0
VERTEX
  8
0
 10
17.2641
 20
214.562
 30
0.0
 40
0.2
 41
0.2
  0
VERTEX
  8
0
 10
18.084
 20
214.741
 30
0.0
 40
0.2
 41
0.2
  0
VERTEX
  8
0
 10
18.9218
 20
214.8
 30
0.0
 40
0.2
 41
0.2
  0
VERTEX
  8
0
 10
19.5557
 20
214.77
 30
0.0
 40
0.2
 41
0.2
  0
VERTEX
  8
0
 10
19.7652
 20
214.74
 30
0.0
 40
0.2
 41
0.2
  0
VERTEX
  8
0
 10
19.9733
 20
214.711
 30
0.0
 40
0.2
 41
0.2
  0
VERTEX
  8
0
 10
20.5893
 20
214.561
 30
0.0
 40
0.2
 41
0.2
  0
VERTEX
  8
0
 10
21.3761
 20
214.267
 30
0.0
 40
0.2
 41
0.2
  0
VERTEX
  8
0
 10
22.112
 20
213.866
 30
0.0
 40
0.2
 41
0.2
  0
VERTEX
  8
0
 10
22.6288
 20
213.498
 30
0.0
 40
0.2
 41
0.2
  0
VERTEX
  8
0
 10
22.7886
 20
213.359
 30
0.0
 40
0.2
 41
0.2
  0
VERTEX
  8
0
 10
22.9471
 20
213.222
 30
0.0
 40
0.2
 41
0.2
  0
VERTEX
  8
0
 10
23.3839
 20
212.762
 30
0.0
 40
0.2
 41
0.2
  0
VERTEX
  8
0
 10
23.8869
 20
212.09
 30
0.0
 40
0.2
 41
0.2
  0
VERTEX
  8
0
 10
24.2893
 20
211.352
 30
0.0
 40
0.2
 41
0.2
  0
VERTEX
  8
0
 10
24.5263
 20
210.764
 30
0.0
 40
0.2
 41
0.2
  0
VERTEX
  8
0
 10
24.5856
 20
210.561
 30
0.0
 40
0.2
 41
0.2
  0
VERTEX
  8
0
 10
24.6448
 20
210.36
 30
0.0
 40
0.2
 41
0.2
  0
VERTEX
  8
0
 10
24.7647
 20
209.737
 30
0.0
 40
0.2
 41
0.2
  0
VERTEX
  8
0
 10
24.8254
 20
208.901
 30
0.0
 40
0.2
 41
0.2
  0
VERTEX
  8
0
 10
24.7647
 20
208.063
 30
0.0
 40
0.2
 41
0.2
  0
VERTEX
  8
0
 10
24.6448
 20
207.44
 30
0.0
 40
0.2
 41
0.2
  0
VERTEX
  8
0
 10
24.5856
 20
207.238
 30
0.0
 40
0.2
 41
0.2
  0
VERTEX
  8
0
 10
24.5263
 20
207.036
 30
0.0
 40
0.2
 41
0.2
  0
VERTEX
  8
0
 10
24.2893
 20
206.448
 30
0.0
 40
0.2
 41
0.2
  0
VERTEX
  8
0
 10
23.8869
 20
205.711
 30
0.0
 40
0.2
 41
0.2
  0
VERTEX
  8
0
 10
23.3839
 20
205.038
 30
0.0
 40
0.2
 41
0.2
  0
VERTEX
  8
0
 10
22.9471
 20
204.579
 30
0.0
 40
0.2
 41
0.2
  0
VERTEX
  8
0
 10
22.7886
 20
204.442
 30
0.0
 40
0.2
 41
0.2
  0
VERTEX
  8
0
 10
22.6288
 20
204.304
 30
0.0
 40
0.2
 41
0.2
  0
VERTEX
  8
0
 10
22.112
 20
203.936
 30
0.0
 40
0.2
 41
0.2
  0
VERTEX
  8
0
 10
21.3761
 20
203.533
 30
0.0
 40
0.2
 41
0.2
  0
VERTEX
  8
0
 10
20.5893
 20
203.24
 30
0.0
 40
0.2
 41
0.2
  0
VERTEX
  8
0
 10
19.9733
 20
203.09
 30
0.0
 40
0.2
 41
0.2
  0
VERTEX
  8
0
 10
19.7652
 20
203.06
 30
0.0
 40
0.2
 41
0.2
  0
VERTEX
  8
0
 10
19.5557
 20
203.031
 30
0.0
 40
0.2
 41
0.2
  0
VERTEX
  8
0
 10
18.9218
 20
203
 30
0.0
 40
0.2
 41
0.2
  0
VERTEX
  8
0
 10
18.084
 20
203.061
 30
0.0
 40
0.2
 41
0.2
  0
VERTEX
  8
0
 10
17.2641
 20
203.24
 30
0.0
 40
0.2
 41
0.2
  0
VERTEX
  8
0
 10
16.6646
 20
203.447
 30
0.0
 40
0.2
 41
0.2
  0
VERTEX
  8
0
 10
16.4744
 20
203.533
 30
0.0
 40
0.2
 41
0.2
  0
VERTEX
  8
0
 10
16.2829
 20
203.622
 30
0.0
 40
0.2
 41
0.2
  0
VERTEX
  8
0
 10
15.7331
 20
203.939
 30
0.0
 40
0.2
 41
0.2
  0
VERTEX
  8
0
 10
15.0606
 20
204.442
 30
0.0
 40
0.2
 41
0.2
  0
VERTEX
  8
0
 10
14.4666
 20
205.036
 30
0.0
 40
0.2
 41
0.2
  0
VERTEX
  8
0
 10
14.0753
 20
205.534
 30
0.0
 40
0.2
 41
0.2
  0
VERTEX
  8
0
 10
13.9623
 20
205.711
 30
0.0
 40
0.2
 41
0.2
  0
VERTEX
  8
0
 10
13.8479
 20
205.889
 30
0.0
 40
0.2
 41
0.2
  0
VERTEX
  8
0
 10
13.5571
 20
206.452
 30
0.0
 40
0.2
 41
0.2
  0
VERTEX
  8
0
 10
13.2636
 20
207.238
 30
0.0
 40
0.2
 41
0.2
  0
VERTEX
  8
0
 10
13.0845
 20
208.059
 30
0.0
 40
0.2
 41
0.2
  0
VERTEX
  8
0
 10
13.0252
 20
208.69
 30
0.0
 40
0.2
 41
0.2
  0
VERTEX
  8
0
 10
13.0252
 20
208.899
 30
0.0
 40
0.2
 41
0.2
  0
SEQEND
 8
0
  0
POLYLINE
  8
0
 62
     5
 66
     1
 10
0
 20
0
 30
0.0
 70
     1
 40
0.566929
 41
0.566929
  0
VERTEX
  8
0
 10
20.4253
 20
213.29
 30
0.0
 40
0.2
 41
0.2
  0
VERTEX
  8
0
 10
21.8254
 20
213.29
 30
0.0
 40
0.2
 41
0.2
  0
VERTEX
  8
0
 10
21.835
 20
213.29
 30
0.0
 40
0.2
 41
0.2
  0
VERTEX
  8
0
 10
21.8667
 20
213.305
 30
0.0
 40
0.2
 41
0.2
  0
VERTEX
  8
0
 10
21.8626
 20
213.329
 30
0.0
 40
0.2
 41
0.2
  0
VERTEX
  8
0
 10
21.8392
 20
213.333
 30
0.0
 40
0.2
 41
0.2
  0
VERTEX
  8
0
 10
21.8254
 20
213.301
 30
0.0
 40
0.2
 41
0.2
  0
VERTEX
  8
0
 10
21.8254
 20
213.29
 30
0.0
 40
0.2
 41
0.2
  0
VERTEX
  8
0
 10
21.8254
 20
209
 30
0.0
 40
0.2
 41
0.2
  0
VERTEX
  8
0
 10
21.8254
 20
208.99
 30
0.0
 40
0.2
 41
0.2
  0
VERTEX
  8
0
 10
21.8392
 20
208.959
 30
0.0
 40
0.2
 41
0.2
  0
VERTEX
  8
0
 10
21.8626
 20
208.963
 30
0.0
 40
0.2
 41
0.2
  0
VERTEX
  8
0
 10
21.8667
 20
208.986
 30
0.0
 40
0.2
 41
0.2
  0
VERTEX
  8
0
 10
21.835
 20
209
 30
0.0
 40
0.2
 41
0.2
  0
VERTEX
  8
0
 10
21.8254
 20
209
 30
0.0
 40
0.2
 41
0.2
  0
VERTEX
  8
0
 10
19.0252
 20
209
 30
0.0
 40
0.2
 41
0.2
  0
VERTEX
  8
0
 10
19.0142
 20
209
 30
0.0
 40
0.2
 41
0.2
  0
VERTEX
  8
0
 10
18.9825
 20
208.986
 30
0.0
 40
0.2
 41
0.2
  0
VERTEX
  8
0
 10
18.9866
 20
208.963
 30
0.0
 40
0.2
 41
0.2
  0
VERTEX
  8
0
 10
19.01
 20
208.959
 30
0.0
 40
0.2
 41
0.2
  0
VERTEX
  8
0
 10
19.0252
 20
208.99
 30
0.0
 40
0.2
 41
0.2
  0
VERTEX
  8
0
 10
19.0252
 20
209
 30
0.0
 40
0.2
 41
0.2
  0
VERTEX
  8
0
 10
19.0252
 20
213.29
 30
0.0
 40
0.2
 41
0.2
  0
VERTEX
  8
0
 10
19.0252
 20
213.301
 30
0.0
 40
0.2
 41
0.2
  0
VERTEX
  8
0
 10
19.01
 20
213.333
 30
0.0
 40
0.2
 41
0.2
  0
VERTEX
  8
0
 10
18.9866
 20
213.329
 30
0.0
 40
0.2
 41
0.2
  0
VERTEX
  8
0
 10
18.9825
 20
213.305
 30
0.0
 40
0.2
 41
0.2
  0
VERTEX
  8
0
 10
19.0142
 20
213.29
 30
0.0
 40
0.2
 41
0.2
  0
VERTEX
  8
0
 10
19.0252
 20
213.29
 30
0.0
 40
0.2
 41
0.2
  0
VERTEX
  8
0
 10
20.4253
 20
213.29
 30
0.0
 40
0.2
 41
0.2
  0
SEQEND
 8
0
  0
POLYLINE
  8
0
 62
     0
 66
     1
 10
0
 20
0
 30
0.0
 70
     1
 40
0.566929
 41
0.566929
  0
VERTEX
  8
0
 10
21.9246
 20
219.7
 30
0.0
 40
0.2
 41
0.2
  0
VERTEX
  8
0
 10
21.9122
 20
219.7
 30
0.0
 40
0.2
 41
0.2
  0
VERTEX
  8
0
 10
21.8777
 20
219.712
 30
0.0
 40
0.2
 41
0.2
  0
VERTEX
  8
0
 10
21.875
 20
219.713
 30
0.0
 40
0.2
 41
0.2
  0
VERTEX
  8
0
 10
21.8708
 20
219.716
 30
0.0
 40
0.2
 41
0.2
  0
VERTEX
  8
0
 10
21.8405
 20
219.747
 30
0.0
 40
0.2
 41
0.2
  0
VERTEX
  8
0
 10
21.8392
 20
219.75
 30
0.0
 40
0.2
 41
0.2
  0
VERTEX
  8
0
 10
21.8364
 20
219.754
 30
0.0
 40
0.2
 41
0.2
  0
VERTEX
  8
0
 10
21.8254
 20
219.789
 30
0.0
 40
0.2
 41
0.2
  0
VERTEX
  8
0
 10
21.8254
 20
219.8
 30
0.0
 40
0.2
 41
0.2
  0
VERTEX
  8
0
 10
21.8254
 20
219.812
 30
0.0
 40
0.2
 41
0.2
  0
VERTEX
  8
0
 10
21.8364
 20
219.847
 30
0.0
 40
0.2
 41
0.2
  0
VERTEX
  8
0
 10
21.8392
 20
219.849
 30
0.0
 40
0.2
 41
0.2
  0
VERTEX
  8
0
 10
21.8405
 20
219.854
 30
0.0
 40
0.2
 41
0.2
  0
VERTEX
  8
0
 10
21.8708
 20
219.885
 30
0.0
 40
0.2
 41
0.2
  0
VERTEX
  8
0
 10
21.875
 20
219.887
 30
0.0
 40
0.2
 41
0.2
  0
VERTEX
  8
0
 10
21.8777
 20
219.89
 30
0.0
 40
0.2
 41
0.2
  0
VERTEX
  8
0
 10
21.9122
 20
219.901
 30
0.0
 40
0.2
 41
0.2
  0
VERTEX
  8
0
 10
21.9246
 20
219.901
 30
0.0
 40
0.2
 41
0.2
  0
VERTEX
  8
0
 10
18.9246
 20
219.901
 30
0.0
 40
0.2
 41
0.2
  0
VERTEX
  8
0
 10
18.937
 20
219.901
 30
0.0
 40
0.2
 41
0.2
  0
VERTEX
  8
0
 10
18.9714
 20
219.89
 30
0.0
 40
0.2
 41
0.2
  0
VERTEX
  8
0
 10
18.9756
 20
219.887
 30
0.0
 40
0.2
 41
0.2
  0
VERTEX
  8
0
 10
18.9784
 20
219.885
 30
0.0
 40
0.2
 41
0.2
  0
VERTEX
  8
0
 10
19.0087
 20
219.854
 30
0.0
 40
0.2
 41
0.2
  0
VERTEX
  8
0
 10
19.0114
 20
219.849
 30
0.0
 40
0.2
 41
0.2
  0
VERTEX
  8
0
 10
19.0128
 20
219.847
 30
0.0
 40
0.2
 41
0.2
  0
VERTEX
  8
0
 10
19.0252
 20
219.812
 30
0.0
 40
0.2
 41
0.2
  0
VERTEX
  8
0
 10
19.0252
 20
219.8
 30
0.0
 40
0.2
 41
0.2
  0
VERTEX
  8
0
 10
19.0252
 20
219.788
 30
0.0
 40
0.2
 41
0.2
  0
VERTEX
  8
0
 10
19.0128
 20
219.754
 30
0.0
 40
0.2
 41
0.2
  0
VERTEX
  8
0
 10
19.0114
 20
219.75
 30
0.0
 40
0.2
 41
0.2
  0
VERTEX
  8
0
 10
19.0087
 20
219.747
 30
0.0
 40
0.2
 41
0.2
  0
VERTEX
  8
0
 10
18.9784
 20
219.716
 30
0.0
 40
0.2
 41
0.2
  0
VERTEX
  8
0
 10
18.9756
 20
219.713
 30
0.0
 40
0.2
 41
0.2
  0
VERTEX
  8
0
 10
18.9714
 20
219.712
 30
0.0
 40
0.2
 41
0.2
  0
VERTEX
  8
0
 10
18.9356
 20
219.7
 30
0.0
 40
0.2
 41
0.2
  0
VERTEX
  8
0
 10
18.9246
 20
219.7
 30
0.0
 40
0.2
 41
0.2
  0
VERTEX
  8
0
 10
19.225
 20
219.7
 30
0.0
 40
0.2
 41
0.2
  0
VERTEX
  8
0
 10
20.1276
 20
219.622
 30
0.0
 40
0.2
 41
0.2
  0
VERTEX
  8
0
 10
21.3058
 20
219.388
 30
0.0
 40
0.2
 41
0.2
  0
VERTEX
  8
0
 10
22.4427
 20
219.002
 30
0.0
 40
0.2
 41
0.2
  0
VERTEX
  8
0
 10
23.264
 20
218.619
 30
0.0
 40
0.2
 41
0.2
  0
VERTEX
  8
0
 10
23.5245
 20
218.467
 30
0.0
 40
0.2
 41
0.2
  0
VERTEX
  8
0
 10
23.7836
 20
218.317
 30
0.0
 40
0.2
 41
0.2
  0
VERTEX
  8
0
 10
24.5263
 20
217.798
 30
0.0
 40
0.2
 41
0.2
  0
VERTEX
  8
0
 10
25.4289
 20
217.005
 30
0.0
 40
0.2
 41
0.2
  0
VERTEX
  8
0
 10
26.2213
 20
216.102
 30
0.0
 40
0.2
 41
0.2
  0
VERTEX
  8
0
 10
26.7422
 20
215.36
 30
0.0
 40
0.2
 41
0.2
  0
VERTEX
  8
0
 10
26.8924
 20
215.099
 30
0.0
 40
0.2
 41
0.2
  0
VERTEX
  8
0
 10
27.0426
 20
214.84
 30
0.0
 40
0.2
 41
0.2
  0
VERTEX
  8
0
 10
27.4257
 20
214.019
 30
0.0
 40
0.2
 41
0.2
  0
VERTEX
  8
0
 10
27.8116
 20
212.882
 30
0.0
 40
0.2
 41
0.2
  0
VERTEX
  8
0
 10
28.0458
 20
211.704
 30
0.0
 40
0.2
 41
0.2
  0
VERTEX
  8
0
 10
28.1258
 20
210.801
 30
0.0
 40
0.2
 41
0.2
  0
VERTEX
  8
0
 10
28.1258
 20
210.499
 30
0.0
 40
0.2
 41
0.2
  0
VERTEX
  8
0
 10
28.1258
 20
210.483
 30
0.0
 40
0.2
 41
0.2
  0
VERTEX
  8
0
 10
28.1547
 20
210.429
 30
0.0
 40
0.2
 41
0.2
  0
VERTEX
  8
0
 10
28.2071
 20
210.4
 30
0.0
 40
0.2
 41
0.2
  0
VERTEX
  8
0
 10
28.225
 20
210.4
 30
0.0
 40
0.2
 41
0.2
  0
VERTEX
  8
0
 10
115.925
 20
210.4
 30
0.0
 40
0.2
 41
0.2
  0
VERTEX
  8
0
 10
115.941
 20
210.4
 30
0.0
 40
0.2
 41
0.2
  0
VERTEX
  8
0
 10
115.995
 20
210.429
 30
0.0
 40
0.2
 41
0.2
  0
VERTEX
  8
0
 10
116.025
 20
210.483
 30
0.0
 40
0.2
 41
0.2
  0
VERTEX
  8
0
 10
116.025
 20
210.499
 30
0.0
 40
0.2
 41
0.2
  0
VERTEX
  8
0
 10
116.025
 20
220.5
 30
0.0
 40
0.2
 41
0.2
  0
VERTEX
  8
0
 10
116.025
 20
230.5
 30
0.0
 40
0.2
 41
0.2
  0
VERTEX
  8
0
 10
116.025
 20
233.5
 30
0.0
 40
0.2
 41
0.2
  0
VERTEX
  8
0
 10
116.025
 20
233.518
 30
0.0
 40
0.2
 41
0.2
  0
VERTEX
  8
0
 10
115.995
 20
233.571
 30
0.0
 40
0.2
 41
0.2
  0
VERTEX
  8
0
 10
115.941
 20
233.6
 30
0.0
 40
0.2
 41
0.2
  0
VERTEX
  8
0
 10
115.925
 20
233.6
 30
0.0
 40
0.2
 41
0.2
  0
VERTEX
  8
0
 10
91.4245
 20
233.6
 30
0.0
 40
0.2
 41
0.2
  0
VERTEX
  8
0
 10
91.4065
 20
233.6
 30
0.0
 40
0.2
 41
0.2
  0
VERTEX
  8
0
 10
91.3543
 20
233.571
 30
0.0
 40
0.2
 41
0.2
  0
VERTEX
  8
0
 10
91.3253
 20
233.518
 30
0.0
 40
0.2
 41
0.2
  0
VERTEX
  8
0
 10
91.3253
 20
233.5
 30
0.0
 40
0.2
 41
0.2
  0
VERTEX
  8
0
 10
91.3253
 20
230.6
 30
0.0
 40
0.2
 41
0.2
  0
VERTEX
  8
0
 10
91.3253
 20
230.59
 30
0.0
 40
0.2
 41
0.2
  0
VERTEX
  8
0
 10
91.3391
 20
230.558
 30
0.0
 40
0.2
 41
0.2
  0
VERTEX
  8
0
 10
91.3624
 20
230.562
 30
0.0
 40
0.2
 41
0.2
  0
VERTEX
  8
0
 10
91.3666
 20
230.586
 30
0.0
 40
0.2
 41
0.2
  0
VERTEX
  8
0
 10
91.3349
 20
230.6
 30
0.0
 40
0.2
 41
0.2
  0
VERTEX
  8
0
 10
91.3253
 20
230.6
 30
0.0
 40
0.2
 41
0.2
  0
VERTEX
  8
0
 10
46.5254
 20
230.6
 30
0.0
 40
0.2
 41
0.2
  0
VERTEX
  8
0
 10
46.5145
 20
230.6
 30
0.0
 40
0.2
 41
0.2
  0
VERTEX
  8
0
 10
46.4827
 20
230.586
 30
0.0
 40
0.2
 41
0.2
  0
VERTEX
  8
0
 10
46.4866
 20
230.562
 30
0.0
 40
0.2
 41
0.2
  0
VERTEX
  8
0
 10
46.5102
 20
230.558
 30
0.0
 40
0.2
 41
0.2
  0
VERTEX
  8
0
 10
46.5254
 20
230.59
 30
0.0
 40
0.2
 41
0.2
  0
VERTEX
  8
0
 10
46.5254
 20
230.6
 30
0.0
 40
0.2
 41
0.2
  0
VERTEX
  8
0
 10
46.5254
 20
233.5
 30
0.0
 40
0.2
 41
0.2
  0
VERTEX
  8
0
 10
46.5254
 20
233.518
 30
0.0
 40
0.2
 41
0.2
  0
VERTEX
  8
0
 10
46.4951
 20
233.571
 30
0.0
 40
0.2
 41
0.2
  0
VERTEX
  8
0
 10
46.4414
 20
233.6
 30
0.0
 40
0.2
 41
0.2
  0
VERTEX
  8
0
 10
46.4249
 20
233.6
 30
0.0
 40
0.2
 41
0.2
  0
VERTEX
  8
0
 10
21.9246
 20
233.6
 30
0.0
 40
0.2
 41
0.2
  0
VERTEX
  8
0
 10
21.9067
 20
233.6
 30
0.0
 40
0.2
 41
0.2
  0
VERTEX
  8
0
 10
21.8543
 20
233.571
 30
0.0
 40
0.2
 41
0.2
  0
VERTEX
  8
0
 10
21.8254
 20
233.518
 30
0.0
 40
0.2
 41
0.2
  0
VERTEX
  8
0
 10
21.8254
 20
233.5
 30
0.0
 40
0.2
 41
0.2
  0
VERTEX
  8
0
 10
21.8254
 20
230.5
 30
0.0
 40
0.2
 41
0.2
  0
VERTEX
  8
0
 10
21.8254
 20
225.149
 30
0.0
 40
0.2
 41
0.2
  0
VERTEX
  8
0
 10
21.8254
 20
219.8
 30
0.0
 40
0.2
 41
0.2
  0
VERTEX
  8
0
 10
21.8254
 20
219.783
 30
0.0
 40
0.2
 41
0.2
  0
VERTEX
  8
0
 10
21.8543
 20
219.729
 30
0.0
 40
0.2
 41
0.2
  0
VERTEX
  8
0
 10
21.9067
 20
219.7
 30
0.0
 40
0.2
 41
0.2
  0
VERTEX
  8
0
 10
21.9246
 20
219.7
 30
0.0
 40
0.2
 41
0.2
  0
SEQEND
 8
0
  0
POLYLINE
  8
0
 62
     0
 66
     1
 10
0
 20
0
 30
0.0
 70
     1
 40
0.566929
 41
0.566929
  0
VERTEX
  8
0
 10
21.9246
 20
235.1
 30
0.0
 40
0.2
 41
0.2
  0
VERTEX
  8
0
 10
46.4249
 20
235.1
 30
0.0
 40
0.2
 41
0.2
  0
VERTEX
  8
0
 10
46.4414
 20
235.1
 30
0.0
 40
0.2
 41
0.2
  0
VERTEX
  8
0
 10
46.4951
 20
235.129
 30
0.0
 40
0.2
 41
0.2
  0
VERTEX
  8
0
 10
46.5254
 20
235.183
 30
0.0
 40
0.2
 41
0.2
  0
VERTEX
  8
0
 10
46.5254
 20
235.199
 30
0.0
 40
0.2
 41
0.2
  0
VERTEX
  8
0
 10
46.5254
 20
238.1
 30
0.0
 40
0.2
 41
0.2
  0
VERTEX
  8
0
 10
46.5254
 20
238.111
 30
0.0
 40
0.2
 41
0.2
  0
VERTEX
  8
0
 10
46.5102
 20
238.143
 30
0.0
 40
0.2
 41
0.2
  0
VERTEX
  8
0
 10
46.4866
 20
238.139
 30
0.0
 40
0.2
 41
0.2
  0
VERTEX
  8
0
 10
46.4827
 20
238.115
 30
0.0
 40
0.2
 41
0.2
  0
VERTEX
  8
0
 10
46.5145
 20
238.1
 30
0.0
 40
0.2
 41
0.2
  0
VERTEX
  8
0
 10
46.5254
 20
238.1
 30
0.0
 40
0.2
 41
0.2
  0
VERTEX
  8
0
 10
91.3253
 20
238.1
 30
0.0
 40
0.2
 41
0.2
  0
VERTEX
  8
0
 10
91.3349
 20
238.1
 30
0.0
 40
0.2
 41
0.2
  0
VERTEX
  8
0
 10
91.3666
 20
238.115
 30
0.0
 40
0.2
 41
0.2
  0
VERTEX
  8
0
 10
91.3624
 20
238.139
 30
0.0
 40
0.2
 41
0.2
  0
VERTEX
  8
0
 10
91.3391
 20
238.143
 30
0.0
 40
0.2
 41
0.2
  0
VERTEX
  8
0
 10
91.3253
 20
238.111
 30
0.0
 40
0.2
 41
0.2
  0
VERTEX
  8
0
 10
91.3253
 20
238.1
 30
0.0
 40
0.2
 41
0.2
  0
VERTEX
  8
0
 10
91.3253
 20
235.199
 30
0.0
 40
0.2
 41
0.2
  0
VERTEX
  8
0
 10
91.3253
 20
235.183
 30
0.0
 40
0.2
 41
0.2
  0
VERTEX
  8
0
 10
91.3543
 20
235.129
 30
0.0
 40
0.2
 41
0.2
  0
VERTEX
  8
0
 10
91.4065
 20
235.1
 30
0.0
 40
0.2
 41
0.2
  0
VERTEX
  8
0
 10
91.4245
 20
235.1
 30
0.0
 40
0.2
 41
0.2
  0
VERTEX
  8
0
 10
115.925
 20
235.1
 30
0.0
 40
0.2
 41
0.2
  0
VERTEX
  8
0
 10
115.941
 20
235.1
 30
0.0
 40
0.2
 41
0.2
  0
VERTEX
  8
0
 10
115.995
 20
235.129
 30
0.0
 40
0.2
 41
0.2
  0
VERTEX
  8
0
 10
116.025
 20
235.183
 30
0.0
 40
0.2
 41
0.2
  0
VERTEX
  8
0
 10
116.025
 20
235.199
 30
0.0
 40
0.2
 41
0.2
  0
VERTEX
  8
0
 10
116.025
 20
238.201
 30
0.0
 40
0.2
 41
0.2
  0
VERTEX
  8
0
 10
116.025
 20
268.6
 30
0.0
 40
0.2
 41
0.2
  0
VERTEX
  8
0
 10
116.025
 20
268.611
 30
0.0
 40
0.2
 41
0.2
  0
VERTEX
  8
0
 10
116.01
 20
268.643
 30
0.0
 40
0.2
 41
0.2
  0
VERTEX
  8
0
 10
115.987
 20
268.637
 30
0.0
 40
0.2
 41
0.2
  0
VERTEX
  8
0
 10
115.983
 20
268.616
 30
0.0
 40
0.2
 41
0.2
  0
VERTEX
  8
0
 10
116.014
 20
268.6
 30
0.0
 40
0.2
 41
0.2
  0
VERTEX
  8
0
 10
116.025
 20
268.6
 30
0.0
 40
0.2
 41
0.2
  0
VERTEX
  8
0
 10
118.925
 20
268.6
 30
0.0
 40
0.2
 41
0.2
  0
VERTEX
  8
0
 10
118.941
 20
268.6
 30
0.0
 40
0.2
 41
0.2
  0
VERTEX
  8
0
 10
118.995
 20
268.629
 30
0.0
 40
0.2
 41
0.2
  0
VERTEX
  8
0
 10
119.025
 20
268.683
 30
0.0
 40
0.2
 41
0.2
  0
VERTEX
  8
0
 10
119.025
 20
268.7
 30
0.0
 40
0.2
 41
0.2
  0
VERTEX
  8
0
 10
119.025
 20
313.7
 30
0.0
 40
0.2
 41
0.2
  0
VERTEX
  8
0
 10
119.025
 20
313.717
 30
0.0
 40
0.2
 41
0.2
  0
VERTEX
  8
0
 10
118.995
 20
313.771
 30
0.0
 40
0.2
 41
0.2
  0
VERTEX
  8
0
 10
118.941
 20
313.8
 30
0.0
 40
0.2
 41
0.2
  0
VERTEX
  8
0
 10
118.925
 20
313.8
 30
0.0
 40
0.2
 41
0.2
  0
VERTEX
  8
0
 10
116.025
 20
313.8
 30
0.0
 40
0.2
 41
0.2
  0
VERTEX
  8
0
 10
116.014
 20
313.8
 30
0.0
 40
0.2
 41
0.2
  0
VERTEX
  8
0
 10
115.983
 20
313.786
 30
0.0
 40
0.2
 41
0.2
  0
VERTEX
  8
0
 10
115.987
 20
313.763
 30
0.0
 40
0.2
 41
0.2
  0
VERTEX
  8
0
 10
116.01
 20
313.759
 30
0.0
 40
0.2
 41
0.2
  0
VERTEX
  8
0
 10
116.025
 20
313.79
 30
0.0
 40
0.2
 41
0.2
  0
VERTEX
  8
0
 10
116.025
 20
313.8
 30
0.0
 40
0.2
 41
0.2
  0
VERTEX
  8
0
 10
116.025
 20
337.6
 30
0.0
 40
0.2
 41
0.2
  0
VERTEX
  8
0
 10
116.025
 20
337.611
 30
0.0
 40
0.2
 41
0.2
  0
VERTEX
  8
0
 10
116.01
 20
337.643
 30
0.0
 40
0.2
 41
0.2
  0
VERTEX
  8
0
 10
115.987
 20
337.639
 30
0.0
 40
0.2
 41
0.2
  0
VERTEX
  8
0
 10
115.983
 20
337.615
 30
0.0
 40
0.2
 41
0.2
  0
VERTEX
  8
0
 10
116.014
 20
337.6
 30
0.0
 40
0.2
 41
0.2
  0
VERTEX
  8
0
 10
116.025
 20
337.6
 30
0.0
 40
0.2
 41
0.2
  0
VERTEX
  8
0
 10
118.925
 20
337.6
 30
0.0
 40
0.2
 41
0.2
  0
VERTEX
  8
0
 10
118.941
 20
337.6
 30
0.0
 40
0.2
 41
0.2
  0
VERTEX
  8
0
 10
118.995
 20
337.631
 30
0.0
 40
0.2
 41
0.2
  0
VERTEX
  8
0
 10
119.025
 20
337.684
 30
0.0
 40
0.2
 41
0.2
  0
VERTEX
  8
0
 10
119.025
 20
337.701
 30
0.0
 40
0.2
 41
0.2
  0
VERTEX
  8
0
 10
119.025
 20
382.7
 30
0.0
 40
0.2
 41
0.2
  0
VERTEX
  8
0
 10
119.025
 20
382.718
 30
0.0
 40
0.2
 41
0.2
  0
VERTEX
  8
0
 10
118.995
 20
382.771
 30
0.0
 40
0.2
 41
0.2
  0
VERTEX
  8
0
 10
118.941
 20
382.799
 30
0.0
 40
0.2
 41
0.2
  0
VERTEX
  8
0
 10
118.925
 20
382.799
 30
0.0
 40
0.2
 41
0.2
  0
VERTEX
  8
0
 10
116.025
 20
382.799
 30
0.0
 40
0.2
 41
0.2
  0
VERTEX
  8
0
 10
116.014
 20
382.799
 30
0.0
 40
0.2
 41
0.2
  0
VERTEX
  8
0
 10
115.983
 20
382.785
 30
0.0
 40
0.2
 41
0.2
  0
VERTEX
  8
0
 10
115.987
 20
382.764
 30
0.0
 40
0.2
 41
0.2
  0
VERTEX
  8
0
 10
116.01
 20
382.757
 30
0.0
 40
0.2
 41
0.2
  0
VERTEX
  8
0
 10
116.025
 20
382.789
 30
0.0
 40
0.2
 41
0.2
  0
VERTEX
  8
0
 10
116.025
 20
382.799
 30
0.0
 40
0.2
 41
0.2
  0
VERTEX
  8
0
 10
116.025
 20
413.202
 30
0.0
 40
0.2
 41
0.2
  0
VERTEX
  8
0
 10
116.025
 20
413.219
 30
0.0
 40
0.2
 41
0.2
  0
VERTEX
  8
0
 10
115.995
 20
413.272
 30
0.0
 40
0.2
 41
0.2
  0
VERTEX
  8
0
 10
115.941
 20
413.3
 30
0.0
 40
0.2
 41
0.2
  0
VERTEX
  8
0
 10
115.925
 20
413.3
 30
0.0
 40
0.2
 41
0.2
  0
VERTEX
  8
0
 10
115.937
 20
413.3
 30
0.0
 40
0.2
 41
0.2
  0
VERTEX
  8
0
 10
115.97
 20
413.29
 30
0.0
 40
0.2
 41
0.2
  0
VERTEX
  8
0
 10
115.974
 20
413.286
 30
0.0
 40
0.2
 41
0.2
  0
VERTEX
  8
0
 10
115.979
 20
413.286
 30
0.0
 40
0.2
 41
0.2
  0
VERTEX
  8
0
 10
116.009
 20
413.254
 30
0.0
 40
0.2
 41
0.2
  0
VERTEX
  8
0
 10
116.012
 20
413.251
 30
0.0
 40
0.2
 41
0.2
  0
VERTEX
  8
0
 10
116.013
 20
413.247
 30
0.0
 40
0.2
 41
0.2
  0
VERTEX
  8
0
 10
116.025
 20
413.212
 30
0.0
 40
0.2
 41
0.2
  0
VERTEX
  8
0
 10
116.025
 20
413.202
 30
0.0
 40
0.2
 41
0.2
  0
VERTEX
  8
0
 10
116.025
 20
413.187
 30
0.0
 40
0.2
 41
0.2
  0
VERTEX
  8
0
 10
116.013
 20
413.152
 30
0.0
 40
0.2
 41
0.2
  0
VERTEX
  8
0
 10
116.012
 20
413.149
 30
0.0
 40
0.2
 41
0.2
  0
VERTEX
  8
0
 10
116.009
 20
413.149
 30
0.0
 40
0.2
 41
0.2
  0
VERTEX
  8
0
 10
115.979
 20
413.117
 30
0.0
 40
0.2
 41
0.2
  0
VERTEX
  8
0
 10
115.974
 20
413.113
 30
0.0
 40
0.2
 41
0.2
  0
VERTEX
  8
0
 10
115.97
 20
413.113
 30
0.0
 40
0.2
 41
0.2
  0
VERTEX
  8
0
 10
115.936
 20
413.099
 30
0.0
 40
0.2
 41
0.2
  0
VERTEX
  8
0
 10
115.925
 20
413.099
 30
0.0
 40
0.2
 41
0.2
  0
VERTEX
  8
0
 10
118.925
 20
413.099
 30
0.0
 40
0.2
 41
0.2
  0
VERTEX
  8
0
 10
119.093
 20
413.099
 30
0.0
 40
0.2
 41
0.2
  0
VERTEX
  8
0
 10
119.597
 20
413.127
 30
0.0
 40
0.2
 41
0.2
  0
VERTEX
  8
0
 10
120.263
 20
413.198
 30
0.0
 40
0.2
 41
0.2
  0
VERTEX
  8
0
 10
120.92
 20
413.321
 30
0.0
 40
0.2
 41
0.2
  0
VERTEX
  8
0
 10
121.567
 20
413.494
 30
0.0
 40
0.2
 41
0.2
  0
VERTEX
  8
0
 10
122.198
 20
413.71
 30
0.0
 40
0.2
 41
0.2
  0
VERTEX
  8
0
 10
122.812
 20
413.971
 30
0.0
 40
0.2
 41
0.2
  0
VERTEX
  8
0
 10
123.407
 20
414.281
 30
0.0
 40
0.2
 41
0.2
  0
VERTEX
  8
0
 10
123.84
 20
414.542
 30
0.0
 40
0.2
 41
0.2
  0
VERTEX
  8
0
 10
123.981
 20
414.634
 30
0.0
 40
0.2
 41
0.2
  0
VERTEX
  8
0
 10
124.12
 20
414.729
 30
0.0
 40
0.2
 41
0.2
  0
VERTEX
  8
0
 10
124.525
 20
415.029
 30
0.0
 40
0.2
 41
0.2
  0
VERTEX
  8
0
 10
125.038
 20
415.459
 30
0.0
 40
0.2
 41
0.2
  0
VERTEX
  8
0
 10
125.516
 20
415.929
 30
0.0
 40
0.2
 41
0.2
  0
VERTEX
  8
0
 10
125.958
 20
416.429
 30
0.0
 40
0.2
 41
0.2
  0
VERTEX
  8
0
 10
126.363
 20
416.959
 30
0.0
 40
0.2
 41
0.2
  0
VERTEX
  8
0
 10
126.727
 20
417.52
 30
0.0
 40
0.2
 41
0.2
  0
VERTEX
  8
0
 10
127.051
 20
418.105
 30
0.0
 40
0.2
 41
0.2
  0
VERTEX
  8
0
 10
127.267
 20
418.564
 30
0.0
 40
0.2
 41
0.2
  0
VERTEX
  8
0
 10
127.332
 20
418.715
 30
0.0
 40
0.2
 41
0.2
  0
VERTEX
  8
0
 10
127.46
 20
419.026
 30
0.0
 40
0.2
 41
0.2
  0
VERTEX
  8
0
 10
127.752
 20
419.993
 30
0.0
 40
0.2
 41
0.2
  0
VERTEX
  8
0
 10
127.981
 20
421.308
 30
0.0
 40
0.2
 41
0.2
  0
VERTEX
  8
0
 10
128.014
 20
422.645
 30
0.0
 40
0.2
 41
0.2
  0
VERTEX
  8
0
 10
127.915
 20
423.647
 30
0.0
 40
0.2
 41
0.2
  0
VERTEX
  8
0
 10
127.85
 20
423.975
 30
0.0
 40
0.2
 41
0.2
  0
VERTEX
  8
0
 10
127.817
 20
424.141
 30
0.0
 40
0.2
 41
0.2
  0
VERTEX
  8
0
 10
127.695
 20
424.632
 30
0.0
 40
0.2
 41
0.2
  0
VERTEX
  8
0
 10
127.491
 20
425.27
 30
0.0
 40
0.2
 41
0.2
  0
VERTEX
  8
0
 10
127.243
 20
425.891
 30
0.0
 40
0.2
 41
0.2
  0
VERTEX
  8
0
 10
126.95
 20
426.491
 30
0.0
 40
0.2
 41
0.2
  0
VERTEX
  8
0
 10
126.614
 20
427.069
 30
0.0
 40
0.2
 41
0.2
  0
VERTEX
  8
0
 10
126.235
 20
427.62
 30
0.0
 40
0.2
 41
0.2
  0
VERTEX
  8
0
 10
125.817
 20
428.142
 30
0.0
 40
0.2
 41
0.2
  0
VERTEX
  8
0
 10
125.479
 20
428.516
 30
0.0
 40
0.2
 41
0.2
  0
VERTEX
  8
0
 10
125.36
 20
428.636
 30
0.0
 40
0.2
 41
0.2
  0
VERTEX
  8
0
 10
125.24
 20
428.756
 30
0.0
 40
0.2
 41
0.2
  0
VERTEX
  8
0
 10
124.865
 20
429.094
 30
0.0
 40
0.2
 41
0.2
  0
VERTEX
  8
0
 10
124.343
 20
429.514
 30
0.0
 40
0.2
 41
0.2
  0
VERTEX
  8
0
 10
123.79
 20
429.891
 30
0.0
 40
0.2
 41
0.2
  0
VERTEX
  8
0
 10
123.215
 20
430.227
 30
0.0
 40
0.2
 41
0.2
  0
VERTEX
  8
0
 10
122.615
 20
430.519
 30
0.0
 40
0.2
 41
0.2
  0
VERTEX
  8
0
 10
121.994
 20
430.766
 30
0.0
 40
0.2
 41
0.2
  0
VERTEX
  8
0
 10
121.356
 20
430.971
 30
0.0
 40
0.2
 41
0.2
  0
VERTEX
  8
0
 10
120.865
 20
431.094
 30
0.0
 40
0.2
 41
0.2
  0
VERTEX
  8
0
 10
120.701
 20
431.126
 30
0.0
 40
0.2
 41
0.2
  0
VERTEX
  8
0
 10
120.372
 20
431.19
 30
0.0
 40
0.2
 41
0.2
  0
VERTEX
  8
0
 10
119.368
 20
431.288
 30
0.0
 40
0.2
 41
0.2
  0
VERTEX
  8
0
 10
118.033
 20
431.257
 30
0.0
 40
0.2
 41
0.2
  0
VERTEX
  8
0
 10
116.717
 20
431.027
 30
0.0
 40
0.2
 41
0.2
  0
VERTEX
  8
0
 10
115.751
 20
430.735
 30
0.0
 40
0.2
 41
0.2
  0
VERTEX
  8
0
 10
115.442
 20
430.608
 30
0.0
 40
0.2
 41
0.2
  0
VERTEX
  8
0
 10
115.287
 20
430.544
 30
0.0
 40
0.2
 41
0.2
  0
VERTEX
  8
0
 10
114.831
 20
430.325
 30
0.0
 40
0.2
 41
0.2
  0
VERTEX
  8
0
 10
114.244
 20
430.004
 30
0.0
 40
0.2
 41
0.2
  0
VERTEX
  8
0
 10
113.683
 20
429.641
 30
0.0
 40
0.2
 41
0.2
  0
VERTEX
  8
0
 10
113.152
 20
429.235
 30
0.0
 40
0.2
 41
0.2
  0
VERTEX
  8
0
 10
112.652
 20
428.794
 30
0.0
 40
0.2
 41
0.2
  0
VERTEX
  8
0
 10
112.185
 20
428.315
 30
0.0
 40
0.2
 41
0.2
  0
VERTEX
  8
0
 10
111.753
 20
427.8
 30
0.0
 40
0.2
 41
0.2
  0
VERTEX
  8
0
 10
111.452
 20
427.397
 30
0.0
 40
0.2
 41
0.2
  0
VERTEX
  8
0
 10
111.359
 20
427.256
 30
0.0
 40
0.2
 41
0.2
  0
VERTEX
  8
0
 10
111.265
 20
427.115
 30
0.0
 40
0.2
 41
0.2
  0
VERTEX
  8
0
 10
111.005
 20
426.685
 30
0.0
 40
0.2
 41
0.2
  0
VERTEX
  8
0
 10
110.696
 20
426.089
 30
0.0
 40
0.2
 41
0.2
  0
VERTEX
  8
0
 10
110.433
 20
425.475
 30
0.0
 40
0.2
 41
0.2
  0
VERTEX
  8
0
 10
110.217
 20
424.843
 30
0.0
 40
0.2
 41
0.2
  0
VERTEX
  8
0
 10
110.046
 20
424.198
 30
0.0
 40
0.2
 41
0.2
  0
VERTEX
  8
0
 10
109.923
 20
423.538
 30
0.0
 40
0.2
 41
0.2
  0
VERTEX
  8
0
 10
109.85
 20
422.875
 30
0.0
 40
0.2
 41
0.2
  0
VERTEX
  8
0
 10
109.825
 20
422.37
 30
0.0
 40
0.2
 41
0.2
  0
VERTEX
  8
0
 10
109.825
 20
422.201
 30
0.0
 40
0.2
 41
0.2
  0
VERTEX
  8
0
 10
109.825
 20
422.219
 30
0.0
 40
0.2
 41
0.2
  0
VERTEX
  8
0
 10
109.854
 20
422.271
 30
0.0
 40
0.2
 41
0.2
  0
VERTEX
  8
0
 10
109.907
 20
422.3
 30
0.0
 40
0.2
 41
0.2
  0
VERTEX
  8
0
 10
109.925
 20
422.3
 30
0.0
 40
0.2
 41
0.2
  0
VERTEX
  8
0
 10
21.9246
 20
422.3
 30
0.0
 40
0.2
 41
0.2
  0
VERTEX
  8
0
 10
21.9067
 20
422.3
 30
0.0
 40
0.2
 41
0.2
  0
VERTEX
  8
0
 10
21.8543
 20
422.271
 30
0.0
 40
0.2
 41
0.2
  0
VERTEX
  8
0
 10
21.8254
 20
422.219
 30
0.0
 40
0.2
 41
0.2
  0
VERTEX
  8
0
 10
21.8254
 20
422.201
 30
0.0
 40
0.2
 41
0.2
  0
VERTEX
  8
0
 10
21.8254
 20
387.301
 30
0.0
 40
0.2
 41
0.2
  0
VERTEX
  8
0
 10
21.8254
 20
387.29
 30
0.0
 40
0.2
 41
0.2
  0
VERTEX
  8
0
 10
21.8392
 20
387.258
 30
0.0
 40
0.2
 41
0.2
  0
VERTEX
  8
0
 10
21.8626
 20
387.262
 30
0.0
 40
0.2
 41
0.2
  0
VERTEX
  8
0
 10
21.8667
 20
387.286
 30
0.0
 40
0.2
 41
0.2
  0
VERTEX
  8
0
 10
21.835
 20
387.301
 30
0.0
 40
0.2
 41
0.2
  0
VERTEX
  8
0
 10
21.8254
 20
387.301
 30
0.0
 40
0.2
 41
0.2
  0
VERTEX
  8
0
 10
18.9246
 20
387.301
 30
0.0
 40
0.2
 41
0.2
  0
VERTEX
  8
0
 10
18.9067
 20
387.301
 30
0.0
 40
0.2
 41
0.2
  0
VERTEX
  8
0
 10
18.8543
 20
387.272
 30
0.0
 40
0.2
 41
0.2
  0
VERTEX
  8
0
 10
18.8254
 20
387.219
 30
0.0
 40
0.2
 41
0.2
  0
VERTEX
  8
0
 10
18.8254
 20
387.198
 30
0.0
 40
0.2
 41
0.2
  0
VERTEX
  8
0
 10
18.8254
 20
342.2
 30
0.0
 40
0.2
 41
0.2
  0
VERTEX
  8
0
 10
18.8254
 20
342.184
 30
0.0
 40
0.2
 41
0.2
  0
VERTEX
  8
0
 10
18.8543
 20
342.13
 30
0.0
 40
0.2
 41
0.2
  0
VERTEX
  8
0
 10
18.9067
 20
342.099
 30
0.0
 40
0.2
 41
0.2
  0
VERTEX
  8
0
 10
18.9246
 20
342.099
 30
0.0
 40
0.2
 41
0.2
  0
VERTEX
  8
0
 10
21.8254
 20
342.099
 30
0.0
 40
0.2
 41
0.2
  0
VERTEX
  8
0
 10
21.835
 20
342.099
 30
0.0
 40
0.2
 41
0.2
  0
VERTEX
  8
0
 10
21.8667
 20
342.114
 30
0.0
 40
0.2
 41
0.2
  0
VERTEX
  8
0
 10
21.8626
 20
342.138
 30
0.0
 40
0.2
 41
0.2
  0
VERTEX
  8
0
 10
21.8392
 20
342.142
 30
0.0
 40
0.2
 41
0.2
  0
VERTEX
  8
0
 10
21.8254
 20
342.11
 30
0.0
 40
0.2
 41
0.2
  0
VERTEX
  8
0
 10
21.8254
 20
342.099
 30
0.0
 40
0.2
 41
0.2
  0
VERTEX
  8
0
 10
21.8254
 20
318.301
 30
0.0
 40
0.2
 41
0.2
  0
VERTEX
  8
0
 10
21.8254
 20
318.291
 30
0.0
 40
0.2
 41
0.2
  0
VERTEX
  8
0
 10
21.8392
 20
318.259
 30
0.0
 40
0.2
 41
0.2
  0
VERTEX
  8
0
 10
21.8626
 20
318.263
 30
0.0
 40
0.2
 41
0.2
  0
VERTEX
  8
0
 10
21.8667
 20
318.287
 30
0.0
 40
0.2
 41
0.2
  0
VERTEX
  8
0
 10
21.835
 20
318.301
 30
0.0
 40
0.2
 41
0.2
  0
VERTEX
  8
0
 10
21.8254
 20
318.301
 30
0.0
 40
0.2
 41
0.2
  0
VERTEX
  8
0
 10
18.9246
 20
318.301
 30
0.0
 40
0.2
 41
0.2
  0
VERTEX
  8
0
 10
18.9067
 20
318.301
 30
0.0
 40
0.2
 41
0.2
  0
VERTEX
  8
0
 10
18.8543
 20
318.272
 30
0.0
 40
0.2
 41
0.2
  0
VERTEX
  8
0
 10
18.8254
 20
318.218
 30
0.0
 40
0.2
 41
0.2
  0
VERTEX
  8
0
 10
18.8254
 20
318.2
 30
0.0
 40
0.2
 41
0.2
  0
VERTEX
  8
0
 10
18.8254
 20
273.2
 30
0.0
 40
0.2
 41
0.2
  0
VERTEX
  8
0
 10
18.8254
 20
273.184
 30
0.0
 40
0.2
 41
0.2
  0
VERTEX
  8
0
 10
18.8543
 20
273.13
 30
0.0
 40
0.2
 41
0.2
  0
VERTEX
  8
0
 10
18.9067
 20
273.1
 30
0.0
 40
0.2
 41
0.2
  0
VERTEX
  8
0
 10
18.9246
 20
273.1
 30
0.0
 40
0.2
 41
0.2
  0
VERTEX
  8
0
 10
21.8254
 20
273.1
 30
0.0
 40
0.2
 41
0.2
  0
VERTEX
  8
0
 10
21.835
 20
273.1
 30
0.0
 40
0.2
 41
0.2
  0
VERTEX
  8
0
 10
21.8667
 20
273.115
 30
0.0
 40
0.2
 41
0.2
  0
VERTEX
  8
0
 10
21.8626
 20
273.138
 30
0.0
 40
0.2
 41
0.2
  0
VERTEX
  8
0
 10
21.8392
 20
273.142
 30
0.0
 40
0.2
 41
0.2
  0
VERTEX
  8
0
 10
21.8254
 20
273.111
 30
0.0
 40
0.2
 41
0.2
  0
VERTEX
  8
0
 10
21.8254
 20
273.1
 30
0.0
 40
0.2
 41
0.2
  0
VERTEX
  8
0
 10
21.8254
 20
238.201
 30
0.0
 40
0.2
 41
0.2
  0
VERTEX
  8
0
 10
21.8254
 20
235.199
 30
0.0
 40
0.2
 41
0.2
  0
VERTEX
  8
0
 10
21.8254
 20
235.183
 30
0.0
 40
0.2
 41
0.2
  0
VERTEX
  8
0
 10
21.8543
 20
235.129
 30
0.0
 40
0.2
 41
0.2
  0
VERTEX
  8
0
 10
21.9067
 20
235.1
 30
0.0
 40
0.2
 41
0.2
  0
VERTEX
  8
0
 10
21.9246
 20
235.1
 30
0.0
 40
0.2
 41
0.2
  0
SEQEND
 8
0
  0
POLYLINE
  8
0
 62
     5
 66
     1
 10
0
 20
0
 30
0.0
 70
     1
 40
0.566929
 41
0.566929
  0
VERTEX
  8
0
 10
113.025
 20
422.3
 30
0.0
 40
0.2
 41
0.2
  0
VERTEX
  8
0
 10
113.025
 20
422.511
 30
0.0
 40
0.2
 41
0.2
  0
VERTEX
  8
0
 10
113.085
 20
423.143
 30
0.0
 40
0.2
 41
0.2
  0
VERTEX
  8
0
 10
113.264
 20
423.965
 30
0.0
 40
0.2
 41
0.2
  0
VERTEX
  8
0
 10
113.557
 20
424.752
 30
0.0
 40
0.2
 41
0.2
  0
VERTEX
  8
0
 10
113.847
 20
425.312
 30
0.0
 40
0.2
 41
0.2
  0
VERTEX
  8
0
 10
113.961
 20
425.489
 30
0.0
 40
0.2
 41
0.2
  0
VERTEX
  8
0
 10
114.074
 20
425.669
 30
0.0
 40
0.2
 41
0.2
  0
VERTEX
  8
0
 10
114.467
 20
426.166
 30
0.0
 40
0.2
 41
0.2
  0
VERTEX
  8
0
 10
115.061
 20
426.759
 30
0.0
 40
0.2
 41
0.2
  0
VERTEX
  8
0
 10
115.733
 20
427.263
 30
0.0
 40
0.2
 41
0.2
  0
VERTEX
  8
0
 10
116.283
 20
427.581
 30
0.0
 40
0.2
 41
0.2
  0
VERTEX
  8
0
 10
116.475
 20
427.669
 30
0.0
 40
0.2
 41
0.2
  0
VERTEX
  8
0
 10
116.665
 20
427.757
 30
0.0
 40
0.2
 41
0.2
  0
VERTEX
  8
0
 10
117.264
 20
427.962
 30
0.0
 40
0.2
 41
0.2
  0
VERTEX
  8
0
 10
118.084
 20
428.142
 30
0.0
 40
0.2
 41
0.2
  0
VERTEX
  8
0
 10
118.922
 20
428.202
 30
0.0
 40
0.2
 41
0.2
  0
VERTEX
  8
0
 10
119.556
 20
428.17
 30
0.0
 40
0.2
 41
0.2
  0
VERTEX
  8
0
 10
119.765
 20
428.142
 30
0.0
 40
0.2
 41
0.2
  0
VERTEX
  8
0
 10
119.973
 20
428.11
 30
0.0
 40
0.2
 41
0.2
  0
VERTEX
  8
0
 10
120.589
 20
427.962
 30
0.0
 40
0.2
 41
0.2
  0
VERTEX
  8
0
 10
121.376
 20
427.669
 30
0.0
 40
0.2
 41
0.2
  0
VERTEX
  8
0
 10
122.112
 20
427.263
 30
0.0
 40
0.2
 41
0.2
  0
VERTEX
  8
0
 10
122.629
 20
426.896
 30
0.0
 40
0.2
 41
0.2
  0
VERTEX
  8
0
 10
122.789
 20
426.759
 30
0.0
 40
0.2
 41
0.2
  0
VERTEX
  8
0
 10
122.947
 20
426.621
 30
0.0
 40
0.2
 41
0.2
  0
VERTEX
  8
0
 10
123.384
 20
426.163
 30
0.0
 40
0.2
 41
0.2
  0
VERTEX
  8
0
 10
123.887
 20
425.489
 30
0.0
 40
0.2
 41
0.2
  0
VERTEX
  8
0
 10
124.289
 20
424.752
 30
0.0
 40
0.2
 41
0.2
  0
VERTEX
  8
0
 10
124.526
 20
424.166
 30
0.0
 40
0.2
 41
0.2
  0
VERTEX
  8
0
 10
124.586
 20
423.961
 30
0.0
 40
0.2
 41
0.2
  0
VERTEX
  8
0
 10
124.645
 20
423.76
 30
0.0
 40
0.2
 41
0.2
  0
VERTEX
  8
0
 10
124.765
 20
423.139
 30
0.0
 40
0.2
 41
0.2
  0
VERTEX
  8
0
 10
124.825
 20
422.3
 30
0.0
 40
0.2
 41
0.2
  0
VERTEX
  8
0
 10
124.765
 20
421.464
 30
0.0
 40
0.2
 41
0.2
  0
VERTEX
  8
0
 10
124.645
 20
420.839
 30
0.0
 40
0.2
 41
0.2
  0
VERTEX
  8
0
 10
124.586
 20
420.638
 30
0.0
 40
0.2
 41
0.2
  0
VERTEX
  8
0
 10
124.526
 20
420.437
 30
0.0
 40
0.2
 41
0.2
  0
VERTEX
  8
0
 10
124.289
 20
419.848
 30
0.0
 40
0.2
 41
0.2
  0
VERTEX
  8
0
 10
123.887
 20
419.111
 30
0.0
 40
0.2
 41
0.2
  0
VERTEX
  8
0
 10
123.384
 20
418.44
 30
0.0
 40
0.2
 41
0.2
  0
VERTEX
  8
0
 10
122.947
 20
417.978
 30
0.0
 40
0.2
 41
0.2
  0
VERTEX
  8
0
 10
122.789
 20
417.841
 30
0.0
 40
0.2
 41
0.2
  0
VERTEX
  8
0
 10
122.629
 20
417.703
 30
0.0
 40
0.2
 41
0.2
  0
VERTEX
  8
0
 10
122.112
 20
417.336
 30
0.0
 40
0.2
 41
0.2
  0
VERTEX
  8
0
 10
121.376
 20
416.934
 30
0.0
 40
0.2
 41
0.2
  0
VERTEX
  8
0
 10
120.589
 20
416.641
 30
0.0
 40
0.2
 41
0.2
  0
VERTEX
  8
0
 10
119.973
 20
416.489
 30
0.0
 40
0.2
 41
0.2
  0
VERTEX
  8
0
 10
119.765
 20
416.461
 30
0.0
 40
0.2
 41
0.2
  0
VERTEX
  8
0
 10
119.556
 20
416.429
 30
0.0
 40
0.2
 41
0.2
  0
VERTEX
  8
0
 10
118.922
 20
416.401
 30
0.0
 40
0.2
 41
0.2
  0
VERTEX
  8
0
 10
118.084
 20
416.461
 30
0.0
 40
0.2
 41
0.2
  0
VERTEX
  8
0
 10
117.264
 20
416.638
 30
0.0
 40
0.2
 41
0.2
  0
VERTEX
  8
0
 10
116.665
 20
416.846
 30
0.0
 40
0.2
 41
0.2
  0
VERTEX
  8
0
 10
116.475
 20
416.934
 30
0.0
 40
0.2
 41
0.2
  0
VERTEX
  8
0
 10
116.283
 20
417.022
 30
0.0
 40
0.2
 41
0.2
  0
VERTEX
  8
0
 10
115.733
 20
417.34
 30
0.0
 40
0.2
 41
0.2
  0
VERTEX
  8
0
 10
115.061
 20
417.841
 30
0.0
 40
0.2
 41
0.2
  0
VERTEX
  8
0
 10
114.467
 20
418.437
 30
0.0
 40
0.2
 41
0.2
  0
VERTEX
  8
0
 10
114.074
 20
418.934
 30
0.0
 40
0.2
 41
0.2
  0
VERTEX
  8
0
 10
113.961
 20
419.111
 30
0.0
 40
0.2
 41
0.2
  0
VERTEX
  8
0
 10
113.847
 20
419.287
 30
0.0
 40
0.2
 41
0.2
  0
VERTEX
  8
0
 10
113.557
 20
419.851
 30
0.0
 40
0.2
 41
0.2
  0
VERTEX
  8
0
 10
113.264
 20
420.638
 30
0.0
 40
0.2
 41
0.2
  0
VERTEX
  8
0
 10
113.085
 20
421.46
 30
0.0
 40
0.2
 41
0.2
  0
VERTEX
  8
0
 10
113.025
 20
422.092
 30
0.0
 40
0.2
 41
0.2
  0
VERTEX
  8
0
 10
113.025
 20
422.3
 30
0.0
 40
0.2
 41
0.2
  0
SEQEND
 8
0
  0
POLYLINE
  8
0
 62
     5
 66
     1
 10
0
 20
0
 30
0.0
 70
     1
 40
0.566929
 41
0.566929
  0
VERTEX
  8
0
 10
117.425
 20
426.692
 30
0.0
 40
0.2
 41
0.2
  0
VERTEX
  8
0
 10
118.825
 20
426.692
 30
0.0
 40
0.2
 41
0.2
  0
VERTEX
  8
0
 10
118.835
 20
426.692
 30
0.0
 40
0.2
 41
0.2
  0
VERTEX
  8
0
 10
118.867
 20
426.706
 30
0.0
 40
0.2
 41
0.2
  0
VERTEX
  8
0
 10
118.863
 20
426.727
 30
0.0
 40
0.2
 41
0.2
  0
VERTEX
  8
0
 10
118.839
 20
426.734
 30
0.0
 40
0.2
 41
0.2
  0
VERTEX
  8
0
 10
118.825
 20
426.702
 30
0.0
 40
0.2
 41
0.2
  0
VERTEX
  8
0
 10
118.825
 20
426.692
 30
0.0
 40
0.2
 41
0.2
  0
VERTEX
  8
0
 10
118.825
 20
422.402
 30
0.0
 40
0.2
 41
0.2
  0
VERTEX
  8
0
 10
118.825
 20
422.391
 30
0.0
 40
0.2
 41
0.2
  0
VERTEX
  8
0
 10
118.839
 20
422.36
 30
0.0
 40
0.2
 41
0.2
  0
VERTEX
  8
0
 10
118.863
 20
422.363
 30
0.0
 40
0.2
 41
0.2
  0
VERTEX
  8
0
 10
118.867
 20
422.388
 30
0.0
 40
0.2
 41
0.2
  0
VERTEX
  8
0
 10
118.835
 20
422.402
 30
0.0
 40
0.2
 41
0.2
  0
VERTEX
  8
0
 10
118.825
 20
422.402
 30
0.0
 40
0.2
 41
0.2
  0
VERTEX
  8
0
 10
116.025
 20
422.402
 30
0.0
 40
0.2
 41
0.2
  0
VERTEX
  8
0
 10
116.014
 20
422.402
 30
0.0
 40
0.2
 41
0.2
  0
VERTEX
  8
0
 10
115.983
 20
422.388
 30
0.0
 40
0.2
 41
0.2
  0
VERTEX
  8
0
 10
115.987
 20
422.363
 30
0.0
 40
0.2
 41
0.2
  0
VERTEX
  8
0
 10
116.01
 20
422.36
 30
0.0
 40
0.2
 41
0.2
  0
VERTEX
  8
0
 10
116.025
 20
422.391
 30
0.0
 40
0.2
 41
0.2
  0
VERTEX
  8
0
 10
116.025
 20
422.402
 30
0.0
 40
0.2
 41
0.2
  0
VERTEX
  8
0
 10
116.025
 20
426.692
 30
0.0
 40
0.2
 41
0.2
  0
VERTEX
  8
0
 10
116.025
 20
426.702
 30
0.0
 40
0.2
 41
0.2
  0
VERTEX
  8
0
 10
116.01
 20
426.734
 30
0.0
 40
0.2
 41
0.2
  0
VERTEX
  8
0
 10
115.987
 20
426.727
 30
0.0
 40
0.2
 41
0.2
  0
VERTEX
  8
0
 10
115.983
 20
426.706
 30
0.0
 40
0.2
 41
0.2
  0
VERTEX
  8
0
 10
116.014
 20
426.692
 30
0.0
 40
0.2
 41
0.2
  0
VERTEX
  8
0
 10
116.025
 20
426.692
 30
0.0
 40
0.2
 41
0.2
  0
VERTEX
  8
0
 10
117.425
 20
426.692
 30
0.0
 40
0.2
 41
0.2
  0
SEQEND
 8
0
  0
POLYLINE
  8
0
 62
     0
 66
     1
 10
0
 20
0
 30
0.0
 70
     1
 40
0.566929
 41
0.566929
  0
VERTEX
  8
0
 10
21.9246
 20
423.799
 30
0.0
 40
0.2
 41
0.2
  0
VERTEX
  8
0
 10
109.624
 20
423.799
 30
0.0
 40
0.2
 41
0.2
  0
VERTEX
  8
0
 10
109.641
 20
423.799
 30
0.0
 40
0.2
 41
0.2
  0
VERTEX
  8
0
 10
109.694
 20
423.831
 30
0.0
 40
0.2
 41
0.2
  0
VERTEX
  8
0
 10
109.725
 20
423.884
 30
0.0
 40
0.2
 41
0.2
  0
VERTEX
  8
0
 10
109.725
 20
423.901
 30
0.0
 40
0.2
 41
0.2
  0
VERTEX
  8
0
 10
109.725
 20
424.201
 30
0.0
 40
0.2
 41
0.2
  0
VERTEX
  8
0
 10
109.803
 20
425.104
 30
0.0
 40
0.2
 41
0.2
  0
VERTEX
  8
0
 10
110.038
 20
426.283
 30
0.0
 40
0.2
 41
0.2
  0
VERTEX
  8
0
 10
110.424
 20
427.418
 30
0.0
 40
0.2
 41
0.2
  0
VERTEX
  8
0
 10
110.808
 20
428.24
 30
0.0
 40
0.2
 41
0.2
  0
VERTEX
  8
0
 10
110.958
 20
428.498
 30
0.0
 40
0.2
 41
0.2
  0
VERTEX
  8
0
 10
111.108
 20
428.759
 30
0.0
 40
0.2
 41
0.2
  0
VERTEX
  8
0
 10
111.628
 20
429.503
 30
0.0
 40
0.2
 41
0.2
  0
VERTEX
  8
0
 10
112.419
 20
430.407
 30
0.0
 40
0.2
 41
0.2
  0
VERTEX
  8
0
 10
113.322
 20
431.197
 30
0.0
 40
0.2
 41
0.2
  0
VERTEX
  8
0
 10
114.064
 20
431.719
 30
0.0
 40
0.2
 41
0.2
  0
VERTEX
  8
0
 10
114.325
 20
431.867
 30
0.0
 40
0.2
 41
0.2
  0
VERTEX
  8
0
 10
114.584
 20
432.019
 30
0.0
 40
0.2
 41
0.2
  0
VERTEX
  8
0
 10
115.405
 20
432.4
 30
0.0
 40
0.2
 41
0.2
  0
VERTEX
  8
0
 10
116.543
 20
432.788
 30
0.0
 40
0.2
 41
0.2
  0
VERTEX
  8
0
 10
117.72
 20
433.021
 30
0.0
 40
0.2
 41
0.2
  0
VERTEX
  8
0
 10
118.623
 20
433.098
 30
0.0
 40
0.2
 41
0.2
  0
VERTEX
  8
0
 10
118.925
 20
433.098
 30
0.0
 40
0.2
 41
0.2
  0
VERTEX
  8
0
 10
118.912
 20
433.098
 30
0.0
 40
0.2
 41
0.2
  0
VERTEX
  8
0
 10
118.878
 20
433.112
 30
0.0
 40
0.2
 41
0.2
  0
VERTEX
  8
0
 10
118.875
 20
433.112
 30
0.0
 40
0.2
 41
0.2
  0
VERTEX
  8
0
 10
118.871
 20
433.116
 30
0.0
 40
0.2
 41
0.2
  0
VERTEX
  8
0
 10
118.839
 20
433.148
 30
0.0
 40
0.2
 41
0.2
  0
VERTEX
  8
0
 10
118.838
 20
433.151
 30
0.0
 40
0.2
 41
0.2
  0
VERTEX
  8
0
 10
118.835
 20
433.155
 30
0.0
 40
0.2
 41
0.2
  0
VERTEX
  8
0
 10
118.825
 20
433.19
 30
0.0
 40
0.2
 41
0.2
  0
VERTEX
  8
0
 10
118.825
 20
433.201
 30
0.0
 40
0.2
 41
0.2
  0
VERTEX
  8
0
 10
118.825
 20
433.211
 30
0.0
 40
0.2
 41
0.2
  0
VERTEX
  8
0
 10
118.835
 20
433.246
 30
0.0
 40
0.2
 41
0.2
  0
VERTEX
  8
0
 10
118.838
 20
433.25
 30
0.0
 40
0.2
 41
0.2
  0
VERTEX
  8
0
 10
118.839
 20
433.253
 30
0.0
 40
0.2
 41
0.2
  0
VERTEX
  8
0
 10
118.871
 20
433.285
 30
0.0
 40
0.2
 41
0.2
  0
VERTEX
  8
0
 10
118.875
 20
433.285
 30
0.0
 40
0.2
 41
0.2
  0
VERTEX
  8
0
 10
118.878
 20
433.289
 30
0.0
 40
0.2
 41
0.2
  0
VERTEX
  8
0
 10
118.912
 20
433.299
 30
0.0
 40
0.2
 41
0.2
  0
VERTEX
  8
0
 10
118.925
 20
433.299
 30
0.0
 40
0.2
 41
0.2
  0
VERTEX
  8
0
 10
115.925
 20
433.299
 30
0.0
 40
0.2
 41
0.2
  0
VERTEX
  8
0
 10
115.937
 20
433.299
 30
0.0
 40
0.2
 41
0.2
  0
VERTEX
  8
0
 10
115.97
 20
433.289
 30
0.0
 40
0.2
 41
0.2
  0
VERTEX
  8
0
 10
115.974
 20
433.285
 30
0.0
 40
0.2
 41
0.2
  0
VERTEX
  8
0
 10
115.979
 20
433.285
 30
0.0
 40
0.2
 41
0.2
  0
VERTEX
  8
0
 10
116.009
 20
433.253
 30
0.0
 40
0.2
 41
0.2
  0
VERTEX
  8
0
 10
116.012
 20
433.25
 30
0.0
 40
0.2
 41
0.2
  0
VERTEX
  8
0
 10
116.013
 20
433.246
 30
0.0
 40
0.2
 41
0.2
  0
VERTEX
  8
0
 10
116.025
 20
433.211
 30
0.0
 40
0.2
 41
0.2
  0
VERTEX
  8
0
 10
116.025
 20
433.201
 30
0.0
 40
0.2
 41
0.2
  0
VERTEX
  8
0
 10
116.025
 20
433.186
 30
0.0
 40
0.2
 41
0.2
  0
VERTEX
  8
0
 10
116.013
 20
433.155
 30
0.0
 40
0.2
 41
0.2
  0
VERTEX
  8
0
 10
116.012
 20
433.151
 30
0.0
 40
0.2
 41
0.2
  0
VERTEX
  8
0
 10
116.009
 20
433.148
 30
0.0
 40
0.2
 41
0.2
  0
VERTEX
  8
0
 10
115.979
 20
433.116
 30
0.0
 40
0.2
 41
0.2
  0
VERTEX
  8
0
 10
115.974
 20
433.112
 30
0.0
 40
0.2
 41
0.2
  0
VERTEX
  8
0
 10
115.97
 20
433.112
 30
0.0
 40
0.2
 41
0.2
  0
VERTEX
  8
0
 10
115.936
 20
433.098
 30
0.0
 40
0.2
 41
0.2
  0
VERTEX
  8
0
 10
115.925
 20
433.098
 30
0.0
 40
0.2
 41
0.2
  0
VERTEX
  8
0
 10
115.941
 20
433.098
 30
0.0
 40
0.2
 41
0.2
  0
VERTEX
  8
0
 10
115.995
 20
433.13
 30
0.0
 40
0.2
 41
0.2
  0
VERTEX
  8
0
 10
116.025
 20
433.183
 30
0.0
 40
0.2
 41
0.2
  0
VERTEX
  8
0
 10
116.025
 20
433.201
 30
0.0
 40
0.2
 41
0.2
  0
VERTEX
  8
0
 10
116.025
 20
438.549
 30
0.0
 40
0.2
 41
0.2
  0
VERTEX
  8
0
 10
116.025
 20
443.9
 30
0.0
 40
0.2
 41
0.2
  0
VERTEX
  8
0
 10
116.025
 20
446.899
 30
0.0
 40
0.2
 41
0.2
  0
VERTEX
  8
0
 10
116.025
 20
446.92
 30
0.0
 40
0.2
 41
0.2
  0
VERTEX
  8
0
 10
115.995
 20
446.969
 30
0.0
 40
0.2
 41
0.2
  0
VERTEX
  8
0
 10
115.941
 20
447.001
 30
0.0
 40
0.2
 41
0.2
  0
VERTEX
  8
0
 10
115.925
 20
447.001
 30
0.0
 40
0.2
 41
0.2
  0
VERTEX
  8
0
 10
91.4245
 20
447.001
 30
0.0
 40
0.2
 41
0.2
  0
VERTEX
  8
0
 10
91.4065
 20
447.001
 30
0.0
 40
0.2
 41
0.2
  0
VERTEX
  8
0
 10
91.3543
 20
446.969
 30
0.0
 40
0.2
 41
0.2
  0
VERTEX
  8
0
 10
91.3253
 20
446.92
 30
0.0
 40
0.2
 41
0.2
  0
VERTEX
  8
0
 10
91.3253
 20
446.899
 30
0.0
 40
0.2
 41
0.2
  0
VERTEX
  8
0
 10
91.3253
 20
443.999
 30
0.0
 40
0.2
 41
0.2
  0
VERTEX
  8
0
 10
91.3253
 20
443.988
 30
0.0
 40
0.2
 41
0.2
  0
VERTEX
  8
0
 10
91.3391
 20
443.957
 30
0.0
 40
0.2
 41
0.2
  0
VERTEX
  8
0
 10
91.3624
 20
443.964
 30
0.0
 40
0.2
 41
0.2
  0
VERTEX
  8
0
 10
91.3666
 20
443.985
 30
0.0
 40
0.2
 41
0.2
  0
VERTEX
  8
0
 10
91.3349
 20
443.999
 30
0.0
 40
0.2
 41
0.2
  0
VERTEX
  8
0
 10
91.3253
 20
443.999
 30
0.0
 40
0.2
 41
0.2
  0
VERTEX
  8
0
 10
46.5254
 20
443.999
 30
0.0
 40
0.2
 41
0.2
  0
VERTEX
  8
0
 10
46.5145
 20
443.999
 30
0.0
 40
0.2
 41
0.2
  0
VERTEX
  8
0
 10
46.4827
 20
443.985
 30
0.0
 40
0.2
 41
0.2
  0
VERTEX
  8
0
 10
46.4866
 20
443.964
 30
0.0
 40
0.2
 41
0.2
  0
VERTEX
  8
0
 10
46.5102
 20
443.957
 30
0.0
 40
0.2
 41
0.2
  0
VERTEX
  8
0
 10
46.5254
 20
443.988
 30
0.0
 40
0.2
 41
0.2
  0
VERTEX
  8
0
 10
46.5254
 20
443.999
 30
0.0
 40
0.2
 41
0.2
  0
VERTEX
  8
0
 10
46.5254
 20
446.899
 30
0.0
 40
0.2
 41
0.2
  0
VERTEX
  8
0
 10
46.5254
 20
446.92
 30
0.0
 40
0.2
 41
0.2
  0
VERTEX
  8
0
 10
46.4951
 20
446.969
 30
0.0
 40
0.2
 41
0.2
  0
VERTEX
  8
0
 10
46.4414
 20
447.001
 30
0.0
 40
0.2
 41
0.2
  0
VERTEX
  8
0
 10
46.4249
 20
447.001
 30
0.0
 40
0.2
 41
0.2
  0
VERTEX
  8
0
 10
21.9246
 20
447.001
 30
0.0
 40
0.2
 41
0.2
  0
VERTEX
  8
0
 10
21.9067
 20
447.001
 30
0.0
 40
0.2
 41
0.2
  0
VERTEX
  8
0
 10
21.8543
 20
446.969
 30
0.0
 40
0.2
 41
0.2
  0
VERTEX
  8
0
 10
21.8254
 20
446.92
 30
0.0
 40
0.2
 41
0.2
  0
VERTEX
  8
0
 10
21.8254
 20
446.899
 30
0.0
 40
0.2
 41
0.2
  0
VERTEX
  8
0
 10
21.8254
 20
443.9
 30
0.0
 40
0.2
 41
0.2
  0
VERTEX
  8
0
 10
21.8254
 20
433.899
 30
0.0
 40
0.2
 41
0.2
  0
VERTEX
  8
0
 10
21.8254
 20
423.901
 30
0.0
 40
0.2
 41
0.2
  0
VERTEX
  8
0
 10
21.8254
 20
423.884
 30
0.0
 40
0.2
 41
0.2
  0
VERTEX
  8
0
 10
21.8543
 20
423.831
 30
0.0
 40
0.2
 41
0.2
  0
VERTEX
  8
0
 10
21.9067
 20
423.799
 30
0.0
 40
0.2
 41
0.2
  0
VERTEX
  8
0
 10
21.9246
 20
423.799
 30
0.0
 40
0.2
 41
0.2
  0
SEQEND
 8
0
  0
POLYLINE
  8
0
 62
     0
 66
     1
 10
0
 20
0
 30
0.0
 70
     1
 40
0.566929
 41
0.566929
  0
VERTEX
  8
0
 10
21.9246
 20
448.5
 30
0.0
 40
0.2
 41
0.2
  0
VERTEX
  8
0
 10
56.425
 20
448.5
 30
0.0
 40
0.2
 41
0.2
  0
VERTEX
  8
0
 10
56.4416
 20
448.5
 30
0.0
 40
0.2
 41
0.2
  0
VERTEX
  8
0
 10
56.4956
 20
448.529
 30
0.0
 40
0.2
 41
0.2
  0
VERTEX
  8
0
 10
56.5256
 20
448.582
 30
0.0
 40
0.2
 41
0.2
  0
VERTEX
  8
0
 10
56.5256
 20
448.599
 30
0.0
 40
0.2
 41
0.2
  0
VERTEX
  8
0
 10
56.5256
 20
451.499
 30
0.0
 40
0.2
 41
0.2
  0
VERTEX
  8
0
 10
56.5256
 20
451.513
 30
0.0
 40
0.2
 41
0.2
  0
VERTEX
  8
0
 10
56.5108
 20
451.541
 30
0.0
 40
0.2
 41
0.2
  0
VERTEX
  8
0
 10
56.4871
 20
451.538
 30
0.0
 40
0.2
 41
0.2
  0
VERTEX
  8
0
 10
56.4829
 20
451.517
 30
0.0
 40
0.2
 41
0.2
  0
VERTEX
  8
0
 10
56.5146
 20
451.499
 30
0.0
 40
0.2
 41
0.2
  0
VERTEX
  8
0
 10
56.5256
 20
451.499
 30
0.0
 40
0.2
 41
0.2
  0
VERTEX
  8
0
 10
101.326
 20
451.499
 30
0.0
 40
0.2
 41
0.2
  0
VERTEX
  8
0
 10
101.335
 20
451.499
 30
0.0
 40
0.2
 41
0.2
  0
VERTEX
  8
0
 10
101.367
 20
451.517
 30
0.0
 40
0.2
 41
0.2
  0
VERTEX
  8
0
 10
101.363
 20
451.538
 30
0.0
 40
0.2
 41
0.2
  0
VERTEX
  8
0
 10
101.34
 20
451.541
 30
0.0
 40
0.2
 41
0.2
  0
VERTEX
  8
0
 10
101.326
 20
451.513
 30
0.0
 40
0.2
 41
0.2
  0
VERTEX
  8
0
 10
101.326
 20
451.499
 30
0.0
 40
0.2
 41
0.2
  0
VERTEX
  8
0
 10
101.326
 20
448.599
 30
0.0
 40
0.2
 41
0.2
  0
VERTEX
  8
0
 10
101.326
 20
448.582
 30
0.0
 40
0.2
 41
0.2
  0
VERTEX
  8
0
 10
101.355
 20
448.529
 30
0.0
 40
0.2
 41
0.2
  0
VERTEX
  8
0
 10
101.407
 20
448.5
 30
0.0
 40
0.2
 41
0.2
  0
VERTEX
  8
0
 10
101.425
 20
448.5
 30
0.0
 40
0.2
 41
0.2
  0
VERTEX
  8
0
 10
135.926
 20
448.5
 30
0.0
 40
0.2
 41
0.2
  0
VERTEX
  8
0
 10
138.926
 20
448.5
 30
0.0
 40
0.2
 41
0.2
  0
VERTEX
  8
0
 10
138.942
 20
448.5
 30
0.0
 40
0.2
 41
0.2
  0
VERTEX
  8
0
 10
138.996
 20
448.529
 30
0.0
 40
0.2
 41
0.2
  0
VERTEX
  8
0
 10
139.025
 20
448.582
 30
0.0
 40
0.2
 41
0.2
  0
VERTEX
  8
0
 10
139.025
 20
448.599
 30
0.0
 40
0.2
 41
0.2
  0
VERTEX
  8
0
 10
139.025
 20
451.601
 30
0.0
 40
0.2
 41
0.2
  0
VERTEX
  8
0
 10
139.025
 20
486.6
 30
0.0
 40
0.2
 41
0.2
  0
VERTEX
  8
0
 10
139.025
 20
486.618
 30
0.0
 40
0.2
 41
0.2
  0
VERTEX
  8
0
 10
138.996
 20
486.671
 30
0.0
 40
0.2
 41
0.2
  0
VERTEX
  8
0
 10
138.942
 20
486.699
 30
0.0
 40
0.2
 41
0.2
  0
VERTEX
  8
0
 10
138.926
 20
486.699
 30
0.0
 40
0.2
 41
0.2
  0
VERTEX
  8
0
 10
136.025
 20
486.699
 30
0.0
 40
0.2
 41
0.2
  0
VERTEX
  8
0
 10
136.014
 20
486.699
 30
0.0
 40
0.2
 41
0.2
  0
VERTEX
  8
0
 10
135.982
 20
486.685
 30
0.0
 40
0.2
 41
0.2
  0
VERTEX
  8
0
 10
135.988
 20
486.664
 30
0.0
 40
0.2
 41
0.2
  0
VERTEX
  8
0
 10
136.01
 20
486.657
 30
0.0
 40
0.2
 41
0.2
  0
VERTEX
  8
0
 10
136.025
 20
486.689
 30
0.0
 40
0.2
 41
0.2
  0
VERTEX
  8
0
 10
136.025
 20
486.699
 30
0.0
 40
0.2
 41
0.2
  0
VERTEX
  8
0
 10
136.025
 20
531.499
 30
0.0
 40
0.2
 41
0.2
  0
VERTEX
  8
0
 10
136.025
 20
531.509
 30
0.0
 40
0.2
 41
0.2
  0
VERTEX
  8
0
 10
136.01
 20
531.541
 30
0.0
 40
0.2
 41
0.2
  0
VERTEX
  8
0
 10
135.988
 20
531.537
 30
0.0
 40
0.2
 41
0.2
  0
VERTEX
  8
0
 10
135.982
 20
531.516
 30
0.0
 40
0.2
 41
0.2
  0
VERTEX
  8
0
 10
136.014
 20
531.499
 30
0.0
 40
0.2
 41
0.2
  0
VERTEX
  8
0
 10
136.025
 20
531.499
 30
0.0
 40
0.2
 41
0.2
  0
VERTEX
  8
0
 10
138.926
 20
531.499
 30
0.0
 40
0.2
 41
0.2
  0
VERTEX
  8
0
 10
138.942
 20
531.499
 30
0.0
 40
0.2
 41
0.2
  0
VERTEX
  8
0
 10
138.996
 20
531.53
 30
0.0
 40
0.2
 41
0.2
  0
VERTEX
  8
0
 10
139.025
 20
531.583
 30
0.0
 40
0.2
 41
0.2
  0
VERTEX
  8
0
 10
139.025
 20
531.601
 30
0.0
 40
0.2
 41
0.2
  0
VERTEX
  8
0
 10
139.025
 20
555.6
 30
0.0
 40
0.2
 41
0.2
  0
VERTEX
  8
0
 10
139.025
 20
555.618
 30
0.0
 40
0.2
 41
0.2
  0
VERTEX
  8
0
 10
138.996
 20
555.671
 30
0.0
 40
0.2
 41
0.2
  0
VERTEX
  8
0
 10
138.942
 20
555.699
 30
0.0
 40
0.2
 41
0.2
  0
VERTEX
  8
0
 10
138.926
 20
555.699
 30
0.0
 40
0.2
 41
0.2
  0
VERTEX
  8
0
 10
136.025
 20
555.699
 30
0.0
 40
0.2
 41
0.2
  0
VERTEX
  8
0
 10
136.014
 20
555.699
 30
0.0
 40
0.2
 41
0.2
  0
VERTEX
  8
0
 10
135.982
 20
555.689
 30
0.0
 40
0.2
 41
0.2
  0
VERTEX
  8
0
 10
135.988
 20
555.664
 30
0.0
 40
0.2
 41
0.2
  0
VERTEX
  8
0
 10
136.01
 20
555.66
 30
0.0
 40
0.2
 41
0.2
  0
VERTEX
  8
0
 10
136.025
 20
555.692
 30
0.0
 40
0.2
 41
0.2
  0
VERTEX
  8
0
 10
136.025
 20
555.699
 30
0.0
 40
0.2
 41
0.2
  0
VERTEX
  8
0
 10
136.025
 20
600.498
 30
0.0
 40
0.2
 41
0.2
  0
VERTEX
  8
0
 10
136.025
 20
600.509
 30
0.0
 40
0.2
 41
0.2
  0
VERTEX
  8
0
 10
136.01
 20
600.541
 30
0.0
 40
0.2
 41
0.2
  0
VERTEX
  8
0
 10
135.988
 20
600.537
 30
0.0
 40
0.2
 41
0.2
  0
VERTEX
  8
0
 10
135.982
 20
600.516
 30
0.0
 40
0.2
 41
0.2
  0
VERTEX
  8
0
 10
136.014
 20
600.498
 30
0.0
 40
0.2
 41
0.2
  0
VERTEX
  8
0
 10
136.025
 20
600.498
 30
0.0
 40
0.2
 41
0.2
  0
VERTEX
  8
0
 10
138.926
 20
600.498
 30
0.0
 40
0.2
 41
0.2
  0
VERTEX
  8
0
 10
138.942
 20
600.498
 30
0.0
 40
0.2
 41
0.2
  0
VERTEX
  8
0
 10
138.996
 20
600.53
 30
0.0
 40
0.2
 41
0.2
  0
VERTEX
  8
0
 10
139.025
 20
600.583
 30
0.0
 40
0.2
 41
0.2
  0
VERTEX
  8
0
 10
139.025
 20
600.601
 30
0.0
 40
0.2
 41
0.2
  0
VERTEX
  8
0
 10
139.025
 20
635.6
 30
0.0
 40
0.2
 41
0.2
  0
VERTEX
  8
0
 10
139.025
 20
635.617
 30
0.0
 40
0.2
 41
0.2
  0
VERTEX
  8
0
 10
138.996
 20
635.67
 30
0.0
 40
0.2
 41
0.2
  0
VERTEX
  8
0
 10
138.942
 20
635.698
 30
0.0
 40
0.2
 41
0.2
  0
VERTEX
  8
0
 10
138.926
 20
635.698
 30
0.0
 40
0.2
 41
0.2
  0
VERTEX
  8
0
 10
135.926
 20
635.698
 30
0.0
 40
0.2
 41
0.2
  0
VERTEX
  8
0
 10
21.9246
 20
635.698
 30
0.0
 40
0.2
 41
0.2
  0
VERTEX
  8
0
 10
18.9246
 20
635.698
 30
0.0
 40
0.2
 41
0.2
  0
VERTEX
  8
0
 10
18.9067
 20
635.698
 30
0.0
 40
0.2
 41
0.2
  0
VERTEX
  8
0
 10
18.8543
 20
635.67
 30
0.0
 40
0.2
 41
0.2
  0
VERTEX
  8
0
 10
18.8254
 20
635.617
 30
0.0
 40
0.2
 41
0.2
  0
VERTEX
  8
0
 10
18.8254
 20
635.6
 30
0.0
 40
0.2
 41
0.2
  0
VERTEX
  8
0
 10
18.8254
 20
600.601
 30
0.0
 40
0.2
 41
0.2
  0
VERTEX
  8
0
 10
18.8254
 20
600.583
 30
0.0
 40
0.2
 41
0.2
  0
VERTEX
  8
0
 10
18.8543
 20
600.53
 30
0.0
 40
0.2
 41
0.2
  0
VERTEX
  8
0
 10
18.9067
 20
600.498
 30
0.0
 40
0.2
 41
0.2
  0
VERTEX
  8
0
 10
18.9246
 20
600.498
 30
0.0
 40
0.2
 41
0.2
  0
VERTEX
  8
0
 10
21.8254
 20
600.498
 30
0.0
 40
0.2
 41
0.2
  0
VERTEX
  8
0
 10
21.835
 20
600.498
 30
0.0
 40
0.2
 41
0.2
  0
VERTEX
  8
0
 10
21.8667
 20
600.516
 30
0.0
 40
0.2
 41
0.2
  0
VERTEX
  8
0
 10
21.8626
 20
600.537
 30
0.0
 40
0.2
 41
0.2
  0
VERTEX
  8
0
 10
21.8392
 20
600.541
 30
0.0
 40
0.2
 41
0.2
  0
VERTEX
  8
0
 10
21.8254
 20
600.509
 30
0.0
 40
0.2
 41
0.2
  0
VERTEX
  8
0
 10
21.8254
 20
600.498
 30
0.0
 40
0.2
 41
0.2
  0
VERTEX
  8
0
 10
21.8254
 20
555.699
 30
0.0
 40
0.2
 41
0.2
  0
VERTEX
  8
0
 10
21.8254
 20
555.692
 30
0.0
 40
0.2
 41
0.2
  0
VERTEX
  8
0
 10
21.8392
 20
555.66
 30
0.0
 40
0.2
 41
0.2
  0
VERTEX
  8
0
 10
21.8626
 20
555.664
 30
0.0
 40
0.2
 41
0.2
  0
VERTEX
  8
0
 10
21.8667
 20
555.689
 30
0.0
 40
0.2
 41
0.2
  0
VERTEX
  8
0
 10
21.835
 20
555.699
 30
0.0
 40
0.2
 41
0.2
  0
VERTEX
  8
0
 10
21.8254
 20
555.699
 30
0.0
 40
0.2
 41
0.2
  0
VERTEX
  8
0
 10
18.9246
 20
555.699
 30
0.0
 40
0.2
 41
0.2
  0
VERTEX
  8
0
 10
18.9067
 20
555.699
 30
0.0
 40
0.2
 41
0.2
  0
VERTEX
  8
0
 10
18.8543
 20
555.671
 30
0.0
 40
0.2
 41
0.2
  0
VERTEX
  8
0
 10
18.8254
 20
555.618
 30
0.0
 40
0.2
 41
0.2
  0
VERTEX
  8
0
 10
18.8254
 20
555.6
 30
0.0
 40
0.2
 41
0.2
  0
VERTEX
  8
0
 10
18.8254
 20
531.601
 30
0.0
 40
0.2
 41
0.2
  0
VERTEX
  8
0
 10
18.8254
 20
531.583
 30
0.0
 40
0.2
 41
0.2
  0
VERTEX
  8
0
 10
18.8543
 20
531.53
 30
0.0
 40
0.2
 41
0.2
  0
VERTEX
  8
0
 10
18.9067
 20
531.499
 30
0.0
 40
0.2
 41
0.2
  0
VERTEX
  8
0
 10
18.9246
 20
531.499
 30
0.0
 40
0.2
 41
0.2
  0
VERTEX
  8
0
 10
21.8254
 20
531.499
 30
0.0
 40
0.2
 41
0.2
  0
VERTEX
  8
0
 10
21.835
 20
531.499
 30
0.0
 40
0.2
 41
0.2
  0
VERTEX
  8
0
 10
21.8667
 20
531.516
 30
0.0
 40
0.2
 41
0.2
  0
VERTEX
  8
0
 10
21.8626
 20
531.537
 30
0.0
 40
0.2
 41
0.2
  0
VERTEX
  8
0
 10
21.8392
 20
531.541
 30
0.0
 40
0.2
 41
0.2
  0
VERTEX
  8
0
 10
21.8254
 20
531.509
 30
0.0
 40
0.2
 41
0.2
  0
VERTEX
  8
0
 10
21.8254
 20
531.499
 30
0.0
 40
0.2
 41
0.2
  0
VERTEX
  8
0
 10
21.8254
 20
486.699
 30
0.0
 40
0.2
 41
0.2
  0
VERTEX
  8
0
 10
21.8254
 20
486.689
 30
0.0
 40
0.2
 41
0.2
  0
VERTEX
  8
0
 10
21.8392
 20
486.657
 30
0.0
 40
0.2
 41
0.2
  0
VERTEX
  8
0
 10
21.8626
 20
486.664
 30
0.0
 40
0.2
 41
0.2
  0
VERTEX
  8
0
 10
21.8667
 20
486.685
 30
0.0
 40
0.2
 41
0.2
  0
VERTEX
  8
0
 10
21.835
 20
486.699
 30
0.0
 40
0.2
 41
0.2
  0
VERTEX
  8
0
 10
21.8254
 20
486.699
 30
0.0
 40
0.2
 41
0.2
  0
VERTEX
  8
0
 10
18.9246
 20
486.699
 30
0.0
 40
0.2
 41
0.2
  0
VERTEX
  8
0
 10
18.9067
 20
486.699
 30
0.0
 40
0.2
 41
0.2
  0
VERTEX
  8
0
 10
18.8543
 20
486.671
 30
0.0
 40
0.2
 41
0.2
  0
VERTEX
  8
0
 10
18.8254
 20
486.618
 30
0.0
 40
0.2
 41
0.2
  0
VERTEX
  8
0
 10
18.8254
 20
486.6
 30
0.0
 40
0.2
 41
0.2
  0
VERTEX
  8
0
 10
18.8254
 20
451.601
 30
0.0
 40
0.2
 41
0.2
  0
VERTEX
  8
0
 10
18.8254
 20
448.599
 30
0.0
 40
0.2
 41
0.2
  0
VERTEX
  8
0
 10
18.8254
 20
448.582
 30
0.0
 40
0.2
 41
0.2
  0
VERTEX
  8
0
 10
18.8543
 20
448.529
 30
0.0
 40
0.2
 41
0.2
  0
VERTEX
  8
0
 10
18.9067
 20
448.5
 30
0.0
 40
0.2
 41
0.2
  0
VERTEX
  8
0
 10
18.9246
 20
448.5
 30
0.0
 40
0.2
 41
0.2
  0
VERTEX
  8
0
 10
21.9246
 20
448.5
 30
0.0
 40
0.2
 41
0.2
  0
SEQEND
 8
0
  0
POLYLINE
  8
0
 62
     0
 66
     1
 10
0
 20
0
 30
0.0
 70
     1
 40
0.566929
 41
0.566929
  0
VERTEX
  8
0
 10
21.9246
 20
637.198
 30
0.0
 40
0.2
 41
0.2
  0
VERTEX
  8
0
 10
56.425
 20
637.198
 30
0.0
 40
0.2
 41
0.2
  0
VERTEX
  8
0
 10
56.4416
 20
637.198
 30
0.0
 40
0.2
 41
0.2
  0
VERTEX
  8
0
 10
56.4956
 20
637.23
 30
0.0
 40
0.2
 41
0.2
  0
VERTEX
  8
0
 10
56.5256
 20
637.282
 30
0.0
 40
0.2
 41
0.2
  0
VERTEX
  8
0
 10
56.5256
 20
637.3
 30
0.0
 40
0.2
 41
0.2
  0
VERTEX
  8
0
 10
56.5256
 20
640.2
 30
0.0
 40
0.2
 41
0.2
  0
VERTEX
  8
0
 10
56.5256
 20
640.211
 30
0.0
 40
0.2
 41
0.2
  0
VERTEX
  8
0
 10
56.5108
 20
640.242
 30
0.0
 40
0.2
 41
0.2
  0
VERTEX
  8
0
 10
56.4871
 20
640.239
 30
0.0
 40
0.2
 41
0.2
  0
VERTEX
  8
0
 10
56.4829
 20
640.214
 30
0.0
 40
0.2
 41
0.2
  0
VERTEX
  8
0
 10
56.5146
 20
640.2
 30
0.0
 40
0.2
 41
0.2
  0
VERTEX
  8
0
 10
56.5256
 20
640.2
 30
0.0
 40
0.2
 41
0.2
  0
VERTEX
  8
0
 10
101.326
 20
640.2
 30
0.0
 40
0.2
 41
0.2
  0
VERTEX
  8
0
 10
101.335
 20
640.2
 30
0.0
 40
0.2
 41
0.2
  0
VERTEX
  8
0
 10
101.367
 20
640.214
 30
0.0
 40
0.2
 41
0.2
  0
VERTEX
  8
0
 10
101.363
 20
640.239
 30
0.0
 40
0.2
 41
0.2
  0
VERTEX
  8
0
 10
101.34
 20
640.242
 30
0.0
 40
0.2
 41
0.2
  0
VERTEX
  8
0
 10
101.326
 20
640.211
 30
0.0
 40
0.2
 41
0.2
  0
VERTEX
  8
0
 10
101.326
 20
640.2
 30
0.0
 40
0.2
 41
0.2
  0
VERTEX
  8
0
 10
101.326
 20
637.3
 30
0.0
 40
0.2
 41
0.2
  0
VERTEX
  8
0
 10
101.326
 20
637.282
 30
0.0
 40
0.2
 41
0.2
  0
VERTEX
  8
0
 10
101.355
 20
637.23
 30
0.0
 40
0.2
 41
0.2
  0
VERTEX
  8
0
 10
101.407
 20
637.198
 30
0.0
 40
0.2
 41
0.2
  0
VERTEX
  8
0
 10
101.425
 20
637.198
 30
0.0
 40
0.2
 41
0.2
  0
VERTEX
  8
0
 10
135.926
 20
637.198
 30
0.0
 40
0.2
 41
0.2
  0
VERTEX
  8
0
 10
138.926
 20
637.198
 30
0.0
 40
0.2
 41
0.2
  0
VERTEX
  8
0
 10
138.942
 20
637.198
 30
0.0
 40
0.2
 41
0.2
  0
VERTEX
  8
0
 10
138.996
 20
637.23
 30
0.0
 40
0.2
 41
0.2
  0
VERTEX
  8
0
 10
139.025
 20
637.282
 30
0.0
 40
0.2
 41
0.2
  0
VERTEX
  8
0
 10
139.025
 20
637.3
 30
0.0
 40
0.2
 41
0.2
  0
VERTEX
  8
0
 10
139.025
 20
640.299
 30
0.0
 40
0.2
 41
0.2
  0
VERTEX
  8
0
 10
139.025
 20
670.8
 30
0.0
 40
0.2
 41
0.2
  0
VERTEX
  8
0
 10
139.025
 20
670.818
 30
0.0
 40
0.2
 41
0.2
  0
VERTEX
  8
0
 10
138.996
 20
670.87
 30
0.0
 40
0.2
 41
0.2
  0
VERTEX
  8
0
 10
138.942
 20
670.902
 30
0.0
 40
0.2
 41
0.2
  0
VERTEX
  8
0
 10
138.926
 20
670.902
 30
0.0
 40
0.2
 41
0.2
  0
VERTEX
  8
0
 10
136.025
 20
670.902
 30
0.0
 40
0.2
 41
0.2
  0
VERTEX
  8
0
 10
136.014
 20
670.902
 30
0.0
 40
0.2
 41
0.2
  0
VERTEX
  8
0
 10
135.982
 20
670.888
 30
0.0
 40
0.2
 41
0.2
  0
VERTEX
  8
0
 10
135.988
 20
670.863
 30
0.0
 40
0.2
 41
0.2
  0
VERTEX
  8
0
 10
136.01
 20
670.86
 30
0.0
 40
0.2
 41
0.2
  0
VERTEX
  8
0
 10
136.025
 20
670.892
 30
0.0
 40
0.2
 41
0.2
  0
VERTEX
  8
0
 10
136.025
 20
670.902
 30
0.0
 40
0.2
 41
0.2
  0
VERTEX
  8
0
 10
136.025
 20
715.701
 30
0.0
 40
0.2
 41
0.2
  0
VERTEX
  8
0
 10
136.025
 20
715.712
 30
0.0
 40
0.2
 41
0.2
  0
VERTEX
  8
0
 10
136.01
 20
715.744
 30
0.0
 40
0.2
 41
0.2
  0
VERTEX
  8
0
 10
135.988
 20
715.737
 30
0.0
 40
0.2
 41
0.2
  0
VERTEX
  8
0
 10
135.982
 20
715.716
 30
0.0
 40
0.2
 41
0.2
  0
VERTEX
  8
0
 10
136.014
 20
715.701
 30
0.0
 40
0.2
 41
0.2
  0
VERTEX
  8
0
 10
136.025
 20
715.701
 30
0.0
 40
0.2
 41
0.2
  0
VERTEX
  8
0
 10
138.926
 20
715.701
 30
0.0
 40
0.2
 41
0.2
  0
VERTEX
  8
0
 10
138.942
 20
715.701
 30
0.0
 40
0.2
 41
0.2
  0
VERTEX
  8
0
 10
138.996
 20
715.73
 30
0.0
 40
0.2
 41
0.2
  0
VERTEX
  8
0
 10
139.025
 20
715.783
 30
0.0
 40
0.2
 41
0.2
  0
VERTEX
  8
0
 10
139.025
 20
715.8
 30
0.0
 40
0.2
 41
0.2
  0
VERTEX
  8
0
 10
139.025
 20
739.8
 30
0.0
 40
0.2
 41
0.2
  0
VERTEX
  8
0
 10
139.025
 20
739.817
 30
0.0
 40
0.2
 41
0.2
  0
VERTEX
  8
0
 10
138.996
 20
739.87
 30
0.0
 40
0.2
 41
0.2
  0
VERTEX
  8
0
 10
138.942
 20
739.902
 30
0.0
 40
0.2
 41
0.2
  0
VERTEX
  8
0
 10
138.926
 20
739.902
 30
0.0
 40
0.2
 41
0.2
  0
VERTEX
  8
0
 10
136.025
 20
739.902
 30
0.0
 40
0.2
 41
0.2
  0
VERTEX
  8
0
 10
136.014
 20
739.902
 30
0.0
 40
0.2
 41
0.2
  0
VERTEX
  8
0
 10
135.982
 20
739.888
 30
0.0
 40
0.2
 41
0.2
  0
VERTEX
  8
0
 10
135.988
 20
739.863
 30
0.0
 40
0.2
 41
0.2
  0
VERTEX
  8
0
 10
136.01
 20
739.86
 30
0.0
 40
0.2
 41
0.2
  0
VERTEX
  8
0
 10
136.025
 20
739.891
 30
0.0
 40
0.2
 41
0.2
  0
VERTEX
  8
0
 10
136.025
 20
739.902
 30
0.0
 40
0.2
 41
0.2
  0
VERTEX
  8
0
 10
136.025
 20
784.701
 30
0.0
 40
0.2
 41
0.2
  0
VERTEX
  8
0
 10
136.025
 20
784.712
 30
0.0
 40
0.2
 41
0.2
  0
VERTEX
  8
0
 10
136.01
 20
784.744
 30
0.0
 40
0.2
 41
0.2
  0
VERTEX
  8
0
 10
135.988
 20
784.737
 30
0.0
 40
0.2
 41
0.2
  0
VERTEX
  8
0
 10
135.982
 20
784.715
 30
0.0
 40
0.2
 41
0.2
  0
VERTEX
  8
0
 10
136.014
 20
784.701
 30
0.0
 40
0.2
 41
0.2
  0
VERTEX
  8
0
 10
136.025
 20
784.701
 30
0.0
 40
0.2
 41
0.2
  0
VERTEX
  8
0
 10
138.926
 20
784.701
 30
0.0
 40
0.2
 41
0.2
  0
VERTEX
  8
0
 10
138.942
 20
784.701
 30
0.0
 40
0.2
 41
0.2
  0
VERTEX
  8
0
 10
138.996
 20
784.729
 30
0.0
 40
0.2
 41
0.2
  0
VERTEX
  8
0
 10
139.025
 20
784.782
 30
0.0
 40
0.2
 41
0.2
  0
VERTEX
  8
0
 10
139.025
 20
784.8
 30
0.0
 40
0.2
 41
0.2
  0
VERTEX
  8
0
 10
139.025
 20
815.301
 30
0.0
 40
0.2
 41
0.2
  0
VERTEX
  8
0
 10
139.025
 20
815.319
 30
0.0
 40
0.2
 41
0.2
  0
VERTEX
  8
0
 10
138.996
 20
815.372
 30
0.0
 40
0.2
 41
0.2
  0
VERTEX
  8
0
 10
138.942
 20
815.4
 30
0.0
 40
0.2
 41
0.2
  0
VERTEX
  8
0
 10
138.926
 20
815.4
 30
0.0
 40
0.2
 41
0.2
  0
VERTEX
  8
0
 10
136.025
 20
815.4
 30
0.0
 40
0.2
 41
0.2
  0
VERTEX
  8
0
 10
136.014
 20
815.4
 30
0.0
 40
0.2
 41
0.2
  0
VERTEX
  8
0
 10
135.982
 20
815.386
 30
0.0
 40
0.2
 41
0.2
  0
VERTEX
  8
0
 10
135.988
 20
815.365
 30
0.0
 40
0.2
 41
0.2
  0
VERTEX
  8
0
 10
136.01
 20
815.358
 30
0.0
 40
0.2
 41
0.2
  0
VERTEX
  8
0
 10
136.025
 20
815.389
 30
0.0
 40
0.2
 41
0.2
  0
VERTEX
  8
0
 10
136.025
 20
815.4
 30
0.0
 40
0.2
 41
0.2
  0
VERTEX
  8
0
 10
136.025
 20
824.301
 30
0.0
 40
0.2
 41
0.2
  0
VERTEX
  8
0
 10
136.025
 20
824.318
 30
0.0
 40
0.2
 41
0.2
  0
VERTEX
  8
0
 10
135.996
 20
824.371
 30
0.0
 40
0.2
 41
0.2
  0
VERTEX
  8
0
 10
135.942
 20
824.399
 30
0.0
 40
0.2
 41
0.2
  0
VERTEX
  8
0
 10
135.926
 20
824.399
 30
0.0
 40
0.2
 41
0.2
  0
VERTEX
  8
0
 10
21.9246
 20
824.399
 30
0.0
 40
0.2
 41
0.2
  0
VERTEX
  8
0
 10
21.9067
 20
824.399
 30
0.0
 40
0.2
 41
0.2
  0
VERTEX
  8
0
 10
21.8543
 20
824.371
 30
0.0
 40
0.2
 41
0.2
  0
VERTEX
  8
0
 10
21.8254
 20
824.318
 30
0.0
 40
0.2
 41
0.2
  0
VERTEX
  8
0
 10
21.8254
 20
824.301
 30
0.0
 40
0.2
 41
0.2
  0
VERTEX
  8
0
 10
21.8254
 20
815.4
 30
0.0
 40
0.2
 41
0.2
  0
VERTEX
  8
0
 10
21.8254
 20
815.389
 30
0.0
 40
0.2
 41
0.2
  0
VERTEX
  8
0
 10
21.8392
 20
815.358
 30
0.0
 40
0.2
 41
0.2
  0
VERTEX
  8
0
 10
21.8626
 20
815.365
 30
0.0
 40
0.2
 41
0.2
  0
VERTEX
  8
0
 10
21.8667
 20
815.386
 30
0.0
 40
0.2
 41
0.2
  0
VERTEX
  8
0
 10
21.835
 20
815.4
 30
0.0
 40
0.2
 41
0.2
  0
VERTEX
  8
0
 10
21.8254
 20
815.4
 30
0.0
 40
0.2
 41
0.2
  0
VERTEX
  8
0
 10
18.9246
 20
815.4
 30
0.0
 40
0.2
 41
0.2
  0
VERTEX
  8
0
 10
18.9067
 20
815.4
 30
0.0
 40
0.2
 41
0.2
  0
VERTEX
  8
0
 10
18.8543
 20
815.372
 30
0.0
 40
0.2
 41
0.2
  0
VERTEX
  8
0
 10
18.8254
 20
815.319
 30
0.0
 40
0.2
 41
0.2
  0
VERTEX
  8
0
 10
18.8254
 20
815.301
 30
0.0
 40
0.2
 41
0.2
  0
VERTEX
  8
0
 10
18.8254
 20
784.8
 30
0.0
 40
0.2
 41
0.2
  0
VERTEX
  8
0
 10
18.8254
 20
784.782
 30
0.0
 40
0.2
 41
0.2
  0
VERTEX
  8
0
 10
18.8543
 20
784.729
 30
0.0
 40
0.2
 41
0.2
  0
VERTEX
  8
0
 10
18.9067
 20
784.701
 30
0.0
 40
0.2
 41
0.2
  0
VERTEX
  8
0
 10
18.9246
 20
784.701
 30
0.0
 40
0.2
 41
0.2
  0
VERTEX
  8
0
 10
21.8254
 20
784.701
 30
0.0
 40
0.2
 41
0.2
  0
VERTEX
  8
0
 10
21.835
 20
784.701
 30
0.0
 40
0.2
 41
0.2
  0
VERTEX
  8
0
 10
21.8667
 20
784.715
 30
0.0
 40
0.2
 41
0.2
  0
VERTEX
  8
0
 10
21.8626
 20
784.737
 30
0.0
 40
0.2
 41
0.2
  0
VERTEX
  8
0
 10
21.8392
 20
784.744
 30
0.0
 40
0.2
 41
0.2
  0
VERTEX
  8
0
 10
21.8254
 20
784.712
 30
0.0
 40
0.2
 41
0.2
  0
VERTEX
  8
0
 10
21.8254
 20
784.701
 30
0.0
 40
0.2
 41
0.2
  0
VERTEX
  8
0
 10
21.8254
 20
739.902
 30
0.0
 40
0.2
 41
0.2
  0
VERTEX
  8
0
 10
21.8254
 20
739.891
 30
0.0
 40
0.2
 41
0.2
  0
VERTEX
  8
0
 10
21.8392
 20
739.86
 30
0.0
 40
0.2
 41
0.2
  0
VERTEX
  8
0
 10
21.8626
 20
739.863
 30
0.0
 40
0.2
 41
0.2
  0
VERTEX
  8
0
 10
21.8667
 20
739.888
 30
0.0
 40
0.2
 41
0.2
  0
VERTEX
  8
0
 10
21.835
 20
739.902
 30
0.0
 40
0.2
 41
0.2
  0
VERTEX
  8
0
 10
21.8254
 20
739.902
 30
0.0
 40
0.2
 41
0.2
  0
VERTEX
  8
0
 10
18.9246
 20
739.902
 30
0.0
 40
0.2
 41
0.2
  0
VERTEX
  8
0
 10
18.9067
 20
739.902
 30
0.0
 40
0.2
 41
0.2
  0
VERTEX
  8
0
 10
18.8543
 20
739.87
 30
0.0
 40
0.2
 41
0.2
  0
VERTEX
  8
0
 10
18.8254
 20
739.817
 30
0.0
 40
0.2
 41
0.2
  0
VERTEX
  8
0
 10
18.8254
 20
739.8
 30
0.0
 40
0.2
 41
0.2
  0
VERTEX
  8
0
 10
18.8254
 20
715.8
 30
0.0
 40
0.2
 41
0.2
  0
VERTEX
  8
0
 10
18.8254
 20
715.783
 30
0.0
 40
0.2
 41
0.2
  0
VERTEX
  8
0
 10
18.8543
 20
715.73
 30
0.0
 40
0.2
 41
0.2
  0
VERTEX
  8
0
 10
18.9067
 20
715.701
 30
0.0
 40
0.2
 41
0.2
  0
VERTEX
  8
0
 10
18.9246
 20
715.701
 30
0.0
 40
0.2
 41
0.2
  0
VERTEX
  8
0
 10
21.8254
 20
715.701
 30
0.0
 40
0.2
 41
0.2
  0
VERTEX
  8
0
 10
21.835
 20
715.701
 30
0.0
 40
0.2
 41
0.2
  0
VERTEX
  8
0
 10
21.8667
 20
715.716
 30
0.0
 40
0.2
 41
0.2
  0
VERTEX
  8
0
 10
21.8626
 20
715.737
 30
0.0
 40
0.2
 41
0.2
  0
VERTEX
  8
0
 10
21.8392
 20
715.744
 30
0.0
 40
0.2
 41
0.2
  0
VERTEX
  8
0
 10
21.8254
 20
715.712
 30
0.0
 40
0.2
 41
0.2
  0
VERTEX
  8
0
 10
21.8254
 20
715.701
 30
0.0
 40
0.2
 41
0.2
  0
VERTEX
  8
0
 10
21.8254
 20
670.902
 30
0.0
 40
0.2
 41
0.2
  0
VERTEX
  8
0
 10
21.8254
 20
670.892
 30
0.0
 40
0.2
 41
0.2
  0
VERTEX
  8
0
 10
21.8392
 20
670.86
 30
0.0
 40
0.2
 41
0.2
  0
VERTEX
  8
0
 10
21.8626
 20
670.863
 30
0.0
 40
0.2
 41
0.2
  0
VERTEX
  8
0
 10
21.8667
 20
670.888
 30
0.0
 40
0.2
 41
0.2
  0
VERTEX
  8
0
 10
21.835
 20
670.902
 30
0.0
 40
0.2
 41
0.2
  0
VERTEX
  8
0
 10
21.8254
 20
670.902
 30
0.0
 40
0.2
 41
0.2
  0
VERTEX
  8
0
 10
18.9246
 20
670.902
 30
0.0
 40
0.2
 41
0.2
  0
VERTEX
  8
0
 10
18.9067
 20
670.902
 30
0.0
 40
0.2
 41
0.2
  0
VERTEX
  8
0
 10
18.8543
 20
670.87
 30
0.0
 40
0.2
 41
0.2
  0
VERTEX
  8
0
 10
18.8254
 20
670.818
 30
0.0
 40
0.2
 41
0.2
  0
VERTEX
  8
0
 10
18.8254
 20
670.8
 30
0.0
 40
0.2
 41
0.2
  0
VERTEX
  8
0
 10
18.8254
 20
640.299
 30
0.0
 40
0.2
 41
0.2
  0
VERTEX
  8
0
 10
18.8254
 20
637.3
 30
0.0
 40
0.2
 41
0.2
  0
VERTEX
  8
0
 10
18.8254
 20
637.282
 30
0.0
 40
0.2
 41
0.2
  0
VERTEX
  8
0
 10
18.8543
 20
637.23
 30
0.0
 40
0.2
 41
0.2
  0
VERTEX
  8
0
 10
18.9067
 20
637.198
 30
0.0
 40
0.2
 41
0.2
  0
VERTEX
  8
0
 10
18.9246
 20
637.198
 30
0.0
 40
0.2
 41
0.2
  0
VERTEX
  8
0
 10
21.9246
 20
637.198
 30
0.0
 40
0.2
 41
0.2
  0
SEQEND
 8
0
  0
POLYLINE
  8
0
 62
     0
 66
     1
 10
0
 20
0
 30
0.0
 70
     1
 40
0.566929
 41
0.566929
  0
VERTEX
  8
0
 10
21.9246
 20
825.899
 30
0.0
 40
0.2
 41
0.2
  0
VERTEX
  8
0
 10
56.425
 20
825.899
 30
0.0
 40
0.2
 41
0.2
  0
VERTEX
  8
0
 10
56.4416
 20
825.899
 30
0.0
 40
0.2
 41
0.2
  0
VERTEX
  8
0
 10
56.4956
 20
825.93
 30
0.0
 40
0.2
 41
0.2
  0
VERTEX
  8
0
 10
56.5256
 20
825.983
 30
0.0
 40
0.2
 41
0.2
  0
VERTEX
  8
0
 10
56.5256
 20
826.001
 30
0.0
 40
0.2
 41
0.2
  0
VERTEX
  8
0
 10
56.5256
 20
828.901
 30
0.0
 40
0.2
 41
0.2
  0
VERTEX
  8
0
 10
56.5256
 20
828.911
 30
0.0
 40
0.2
 41
0.2
  0
VERTEX
  8
0
 10
56.5108
 20
828.943
 30
0.0
 40
0.2
 41
0.2
  0
VERTEX
  8
0
 10
56.4871
 20
828.94
 30
0.0
 40
0.2
 41
0.2
  0
VERTEX
  8
0
 10
56.4829
 20
828.915
 30
0.0
 40
0.2
 41
0.2
  0
VERTEX
  8
0
 10
56.5146
 20
828.901
 30
0.0
 40
0.2
 41
0.2
  0
VERTEX
  8
0
 10
56.5256
 20
828.901
 30
0.0
 40
0.2
 41
0.2
  0
VERTEX
  8
0
 10
101.326
 20
828.901
 30
0.0
 40
0.2
 41
0.2
  0
VERTEX
  8
0
 10
101.335
 20
828.901
 30
0.0
 40
0.2
 41
0.2
  0
VERTEX
  8
0
 10
101.367
 20
828.915
 30
0.0
 40
0.2
 41
0.2
  0
VERTEX
  8
0
 10
101.363
 20
828.94
 30
0.0
 40
0.2
 41
0.2
  0
VERTEX
  8
0
 10
101.34
 20
828.943
 30
0.0
 40
0.2
 41
0.2
  0
VERTEX
  8
0
 10
101.326
 20
828.911
 30
0.0
 40
0.2
 41
0.2
  0
VERTEX
  8
0
 10
101.326
 20
828.901
 30
0.0
 40
0.2
 41
0.2
  0
VERTEX
  8
0
 10
101.326
 20
826.001
 30
0.0
 40
0.2
 41
0.2
  0
VERTEX
  8
0
 10
101.326
 20
825.983
 30
0.0
 40
0.2
 41
0.2
  0
VERTEX
  8
0
 10
101.355
 20
825.93
 30
0.0
 40
0.2
 41
0.2
  0
VERTEX
  8
0
 10
101.407
 20
825.899
 30
0.0
 40
0.2
 41
0.2
  0
VERTEX
  8
0
 10
101.425
 20
825.899
 30
0.0
 40
0.2
 41
0.2
  0
VERTEX
  8
0
 10
135.926
 20
825.899
 30
0.0
 40
0.2
 41
0.2
  0
VERTEX
  8
0
 10
138.926
 20
825.899
 30
0.0
 40
0.2
 41
0.2
  0
VERTEX
  8
0
 10
138.942
 20
825.899
 30
0.0
 40
0.2
 41
0.2
  0
VERTEX
  8
0
 10
138.996
 20
825.93
 30
0.0
 40
0.2
 41
0.2
  0
VERTEX
  8
0
 10
139.025
 20
825.983
 30
0.0
 40
0.2
 41
0.2
  0
VERTEX
  8
0
 10
139.025
 20
826.001
 30
0.0
 40
0.2
 41
0.2
  0
VERTEX
  8
0
 10
139.025
 20
829
 30
0.0
 40
0.2
 41
0.2
  0
VERTEX
  8
0
 10
139.025
 20
839.001
 30
0.0
 40
0.2
 41
0.2
  0
VERTEX
  8
0
 10
139.025
 20
848.999
 30
0.0
 40
0.2
 41
0.2
  0
VERTEX
  8
0
 10
139.025
 20
849.016
 30
0.0
 40
0.2
 41
0.2
  0
VERTEX
  8
0
 10
138.996
 20
849.073
 30
0.0
 40
0.2
 41
0.2
  0
VERTEX
  8
0
 10
138.942
 20
849.101
 30
0.0
 40
0.2
 41
0.2
  0
VERTEX
  8
0
 10
138.926
 20
849.101
 30
0.0
 40
0.2
 41
0.2
  0
VERTEX
  8
0
 10
135.926
 20
849.101
 30
0.0
 40
0.2
 41
0.2
  0
VERTEX
  8
0
 10
21.9246
 20
849.101
 30
0.0
 40
0.2
 41
0.2
  0
VERTEX
  8
0
 10
18.9246
 20
849.101
 30
0.0
 40
0.2
 41
0.2
  0
VERTEX
  8
0
 10
18.9067
 20
849.101
 30
0.0
 40
0.2
 41
0.2
  0
VERTEX
  8
0
 10
18.8543
 20
849.073
 30
0.0
 40
0.2
 41
0.2
  0
VERTEX
  8
0
 10
18.8254
 20
849.016
 30
0.0
 40
0.2
 41
0.2
  0
VERTEX
  8
0
 10
18.8254
 20
848.999
 30
0.0
 40
0.2
 41
0.2
  0
VERTEX
  8
0
 10
18.8254
 20
839.001
 30
0.0
 40
0.2
 41
0.2
  0
VERTEX
  8
0
 10
18.8254
 20
829
 30
0.0
 40
0.2
 41
0.2
  0
VERTEX
  8
0
 10
18.8254
 20
826.001
 30
0.0
 40
0.2
 41
0.2
  0
VERTEX
  8
0
 10
18.8254
 20
825.983
 30
0.0
 40
0.2
 41
0.2
  0
VERTEX
  8
0
 10
18.8543
 20
825.93
 30
0.0
 40
0.2
 41
0.2
  0
VERTEX
  8
0
 10
18.9067
 20
825.899
 30
0.0
 40
0.2
 41
0.2
  0
VERTEX
  8
0
 10
18.9246
 20
825.899
 30
0.0
 40
0.2
 41
0.2
  0
VERTEX
  8
0
 10
21.9246
 20
825.899
 30
0.0
 40
0.2
 41
0.2
  0
SEQEND
 8
0
  0
POLYLINE
  8
0
 62
     0
 66
     1
 10
0
 20
0
 30
0.0
 70
     1
 40
0.566929
 41
0.566929
  0
VERTEX
  8
0
 10
21.9246
 20
850.6
 30
0.0
 40
0.2
 41
0.2
  0
VERTEX
  8
0
 10
56.425
 20
850.6
 30
0.0
 40
0.2
 41
0.2
  0
VERTEX
  8
0
 10
56.4416
 20
850.6
 30
0.0
 40
0.2
 41
0.2
  0
VERTEX
  8
0
 10
56.4956
 20
850.628
 30
0.0
 40
0.2
 41
0.2
  0
VERTEX
  8
0
 10
56.5256
 20
850.685
 30
0.0
 40
0.2
 41
0.2
  0
VERTEX
  8
0
 10
56.5256
 20
850.699
 30
0.0
 40
0.2
 41
0.2
  0
VERTEX
  8
0
 10
56.5256
 20
853.599
 30
0.0
 40
0.2
 41
0.2
  0
VERTEX
  8
0
 10
56.5256
 20
853.609
 30
0.0
 40
0.2
 41
0.2
  0
VERTEX
  8
0
 10
56.5108
 20
853.641
 30
0.0
 40
0.2
 41
0.2
  0
VERTEX
  8
0
 10
56.4871
 20
853.638
 30
0.0
 40
0.2
 41
0.2
  0
VERTEX
  8
0
 10
56.4829
 20
853.616
 30
0.0
 40
0.2
 41
0.2
  0
VERTEX
  8
0
 10
56.5146
 20
853.599
 30
0.0
 40
0.2
 41
0.2
  0
VERTEX
  8
0
 10
56.5256
 20
853.599
 30
0.0
 40
0.2
 41
0.2
  0
VERTEX
  8
0
 10
101.326
 20
853.599
 30
0.0
 40
0.2
 41
0.2
  0
VERTEX
  8
0
 10
101.335
 20
853.599
 30
0.0
 40
0.2
 41
0.2
  0
VERTEX
  8
0
 10
101.367
 20
853.616
 30
0.0
 40
0.2
 41
0.2
  0
VERTEX
  8
0
 10
101.363
 20
853.638
 30
0.0
 40
0.2
 41
0.2
  0
VERTEX
  8
0
 10
101.34
 20
853.641
 30
0.0
 40
0.2
 41
0.2
  0
VERTEX
  8
0
 10
101.326
 20
853.609
 30
0.0
 40
0.2
 41
0.2
  0
VERTEX
  8
0
 10
101.326
 20
853.599
 30
0.0
 40
0.2
 41
0.2
  0
VERTEX
  8
0
 10
101.326
 20
850.699
 30
0.0
 40
0.2
 41
0.2
  0
VERTEX
  8
0
 10
101.326
 20
850.685
 30
0.0
 40
0.2
 41
0.2
  0
VERTEX
  8
0
 10
101.355
 20
850.628
 30
0.0
 40
0.2
 41
0.2
  0
VERTEX
  8
0
 10
101.407
 20
850.6
 30
0.0
 40
0.2
 41
0.2
  0
VERTEX
  8
0
 10
101.425
 20
850.6
 30
0.0
 40
0.2
 41
0.2
  0
VERTEX
  8
0
 10
135.926
 20
850.6
 30
0.0
 40
0.2
 41
0.2
  0
VERTEX
  8
0
 10
138.926
 20
850.6
 30
0.0
 40
0.2
 41
0.2
  0
VERTEX
  8
0
 10
138.942
 20
850.6
 30
0.0
 40
0.2
 41
0.2
  0
VERTEX
  8
0
 10
138.996
 20
850.628
 30
0.0
 40
0.2
 41
0.2
  0
VERTEX
  8
0
 10
139.025
 20
850.685
 30
0.0
 40
0.2
 41
0.2
  0
VERTEX
  8
0
 10
139.025
 20
850.699
 30
0.0
 40
0.2
 41
0.2
  0
VERTEX
  8
0
 10
139.025
 20
853.701
 30
0.0
 40
0.2
 41
0.2
  0
VERTEX
  8
0
 10
139.025
 20
859.049
 30
0.0
 40
0.2
 41
0.2
  0
VERTEX
  8
0
 10
139.025
 20
864.401
 30
0.0
 40
0.2
 41
0.2
  0
VERTEX
  8
0
 10
139.025
 20
864.418
 30
0.0
 40
0.2
 41
0.2
  0
VERTEX
  8
0
 10
138.996
 20
864.471
 30
0.0
 40
0.2
 41
0.2
  0
VERTEX
  8
0
 10
138.942
 20
864.5
 30
0.0
 40
0.2
 41
0.2
  0
VERTEX
  8
0
 10
138.926
 20
864.5
 30
0.0
 40
0.2
 41
0.2
  0
VERTEX
  8
0
 10
136.025
 20
864.5
 30
0.0
 40
0.2
 41
0.2
  0
VERTEX
  8
0
 10
136.014
 20
864.5
 30
0.0
 40
0.2
 41
0.2
  0
VERTEX
  8
0
 10
135.982
 20
864.485
 30
0.0
 40
0.2
 41
0.2
  0
VERTEX
  8
0
 10
135.988
 20
864.464
 30
0.0
 40
0.2
 41
0.2
  0
VERTEX
  8
0
 10
136.01
 20
864.457
 30
0.0
 40
0.2
 41
0.2
  0
VERTEX
  8
0
 10
136.025
 20
864.489
 30
0.0
 40
0.2
 41
0.2
  0
VERTEX
  8
0
 10
136.025
 20
864.5
 30
0.0
 40
0.2
 41
0.2
  0
VERTEX
  8
0
 10
136.025
 20
868.811
 30
0.0
 40
0.2
 41
0.2
  0
VERTEX
  8
0
 10
136.025
 20
868.821
 30
0.0
 40
0.2
 41
0.2
  0
VERTEX
  8
0
 10
136.01
 20
868.853
 30
0.0
 40
0.2
 41
0.2
  0
VERTEX
  8
0
 10
135.988
 20
868.849
 30
0.0
 40
0.2
 41
0.2
  0
VERTEX
  8
0
 10
135.982
 20
868.825
 30
0.0
 40
0.2
 41
0.2
  0
VERTEX
  8
0
 10
136.014
 20
868.811
 30
0.0
 40
0.2
 41
0.2
  0
VERTEX
  8
0
 10
136.025
 20
868.811
 30
0.0
 40
0.2
 41
0.2
  0
VERTEX
  8
0
 10
138.926
 20
868.811
 30
0.0
 40
0.2
 41
0.2
  0
VERTEX
  8
0
 10
138.942
 20
868.811
 30
0.0
 40
0.2
 41
0.2
  0
VERTEX
  8
0
 10
138.996
 20
868.839
 30
0.0
 40
0.2
 41
0.2
  0
VERTEX
  8
0
 10
139.025
 20
868.892
 30
0.0
 40
0.2
 41
0.2
  0
VERTEX
  8
0
 10
139.025
 20
868.909
 30
0.0
 40
0.2
 41
0.2
  0
VERTEX
  8
0
 10
139.025
 20
873.4
 30
0.0
 40
0.2
 41
0.2
  0
VERTEX
  8
0
 10
139.025
 20
873.418
 30
0.0
 40
0.2
 41
0.2
  0
VERTEX
  8
0
 10
138.996
 20
873.471
 30
0.0
 40
0.2
 41
0.2
  0
VERTEX
  8
0
 10
138.942
 20
873.499
 30
0.0
 40
0.2
 41
0.2
  0
VERTEX
  8
0
 10
138.926
 20
873.499
 30
0.0
 40
0.2
 41
0.2
  0
VERTEX
  8
0
 10
18.9246
 20
873.499
 30
0.0
 40
0.2
 41
0.2
  0
VERTEX
  8
0
 10
18.9067
 20
873.499
 30
0.0
 40
0.2
 41
0.2
  0
VERTEX
  8
0
 10
18.8543
 20
873.471
 30
0.0
 40
0.2
 41
0.2
  0
VERTEX
  8
0
 10
18.8254
 20
873.418
 30
0.0
 40
0.2
 41
0.2
  0
VERTEX
  8
0
 10
18.8254
 20
873.4
 30
0.0
 40
0.2
 41
0.2
  0
VERTEX
  8
0
 10
18.8254
 20
868.909
 30
0.0
 40
0.2
 41
0.2
  0
VERTEX
  8
0
 10
18.8254
 20
868.892
 30
0.0
 40
0.2
 41
0.2
  0
VERTEX
  8
0
 10
18.8543
 20
868.839
 30
0.0
 40
0.2
 41
0.2
  0
VERTEX
  8
0
 10
18.9067
 20
868.811
 30
0.0
 40
0.2
 41
0.2
  0
VERTEX
  8
0
 10
18.9246
 20
868.811
 30
0.0
 40
0.2
 41
0.2
  0
VERTEX
  8
0
 10
21.8254
 20
868.811
 30
0.0
 40
0.2
 41
0.2
  0
VERTEX
  8
0
 10
21.835
 20
868.811
 30
0.0
 40
0.2
 41
0.2
  0
VERTEX
  8
0
 10
21.8667
 20
868.825
 30
0.0
 40
0.2
 41
0.2
  0
VERTEX
  8
0
 10
21.8626
 20
868.849
 30
0.0
 40
0.2
 41
0.2
  0
VERTEX
  8
0
 10
21.8392
 20
868.853
 30
0.0
 40
0.2
 41
0.2
  0
VERTEX
  8
0
 10
21.8254
 20
868.821
 30
0.0
 40
0.2
 41
0.2
  0
VERTEX
  8
0
 10
21.8254
 20
868.811
 30
0.0
 40
0.2
 41
0.2
  0
VERTEX
  8
0
 10
21.8254
 20
864.5
 30
0.0
 40
0.2
 41
0.2
  0
VERTEX
  8
0
 10
21.8254
 20
864.489
 30
0.0
 40
0.2
 41
0.2
  0
VERTEX
  8
0
 10
21.8392
 20
864.457
 30
0.0
 40
0.2
 41
0.2
  0
VERTEX
  8
0
 10
21.8626
 20
864.464
 30
0.0
 40
0.2
 41
0.2
  0
VERTEX
  8
0
 10
21.8667
 20
864.485
 30
0.0
 40
0.2
 41
0.2
  0
VERTEX
  8
0
 10
21.835
 20
864.5
 30
0.0
 40
0.2
 41
0.2
  0
VERTEX
  8
0
 10
21.8254
 20
864.5
 30
0.0
 40
0.2
 41
0.2
  0
VERTEX
  8
0
 10
18.9246
 20
864.5
 30
0.0
 40
0.2
 41
0.2
  0
VERTEX
  8
0
 10
18.9067
 20
864.5
 30
0.0
 40
0.2
 41
0.2
  0
VERTEX
  8
0
 10
18.8543
 20
864.471
 30
0.0
 40
0.2
 41
0.2
  0
VERTEX
  8
0
 10
18.8254
 20
864.418
 30
0.0
 40
0.2
 41
0.2
  0
VERTEX
  8
0
 10
18.8254
 20
864.401
 30
0.0
 40
0.2
 41
0.2
  0
VERTEX
  8
0
 10
18.8254
 20
859.049
 30
0.0
 40
0.2
 41
0.2
  0
VERTEX
  8
0
 10
18.8254
 20
853.701
 30
0.0
 40
0.2
 41
0.2
  0
VERTEX
  8
0
 10
18.8254
 20
850.699
 30
0.0
 40
0.2
 41
0.2
  0
VERTEX
  8
0
 10
18.8254
 20
850.685
 30
0.0
 40
0.2
 41
0.2
  0
VERTEX
  8
0
 10
18.8543
 20
850.628
 30
0.0
 40
0.2
 41
0.2
  0
VERTEX
  8
0
 10
18.9067
 20
850.6
 30
0.0
 40
0.2
 41
0.2
  0
VERTEX
  8
0
 10
18.9246
 20
850.6
 30
0.0
 40
0.2
 41
0.2
  0
VERTEX
  8
0
 10
21.9246
 20
850.6
 30
0.0
 40
0.2
 41
0.2
  0
SEQEND
 8
0
  0
POLYLINE
  8
0
 62
     0
 66
     1
 10
0
 20
0
 30
0.0
 70
     1
 40
0.566929
 41
0.566929
  0
VERTEX
  8
0
 10
21.9246
 20
878
 30
0.0
 40
0.2
 41
0.2
  0
VERTEX
  8
0
 10
46.3254
 20
878
 30
0.0
 40
0.2
 41
0.2
  0
VERTEX
  8
0
 10
46.3352
 20
878
 30
0.0
 40
0.2
 41
0.2
  0
VERTEX
  8
0
 10
46.367
 20
878.015
 30
0.0
 40
0.2
 41
0.2
  0
VERTEX
  8
0
 10
46.3628
 20
878.039
 30
0.0
 40
0.2
 41
0.2
  0
VERTEX
  8
0
 10
46.3391
 20
878.043
 30
0.0
 40
0.2
 41
0.2
  0
VERTEX
  8
0
 10
46.3254
 20
878.011
 30
0.0
 40
0.2
 41
0.2
  0
VERTEX
  8
0
 10
46.3254
 20
878
 30
0.0
 40
0.2
 41
0.2
  0
VERTEX
  8
0
 10
46.3254
 20
875.101
 30
0.0
 40
0.2
 41
0.2
  0
VERTEX
  8
0
 10
46.3254
 20
875.083
 30
0.0
 40
0.2
 41
0.2
  0
VERTEX
  8
0
 10
46.3543
 20
875.03
 30
0.0
 40
0.2
 41
0.2
  0
VERTEX
  8
0
 10
46.4069
 20
875.002
 30
0.0
 40
0.2
 41
0.2
  0
VERTEX
  8
0
 10
46.4249
 20
875.002
 30
0.0
 40
0.2
 41
0.2
  0
VERTEX
  8
0
 10
91.4245
 20
875.002
 30
0.0
 40
0.2
 41
0.2
  0
VERTEX
  8
0
 10
91.4411
 20
875.002
 30
0.0
 40
0.2
 41
0.2
  0
VERTEX
  8
0
 10
91.4947
 20
875.03
 30
0.0
 40
0.2
 41
0.2
  0
VERTEX
  8
0
 10
91.525
 20
875.083
 30
0.0
 40
0.2
 41
0.2
  0
VERTEX
  8
0
 10
91.525
 20
875.101
 30
0.0
 40
0.2
 41
0.2
  0
VERTEX
  8
0
 10
91.525
 20
878
 30
0.0
 40
0.2
 41
0.2
  0
VERTEX
  8
0
 10
91.525
 20
878.011
 30
0.0
 40
0.2
 41
0.2
  0
VERTEX
  8
0
 10
91.5099
 20
878.043
 30
0.0
 40
0.2
 41
0.2
  0
VERTEX
  8
0
 10
91.4866
 20
878.039
 30
0.0
 40
0.2
 41
0.2
  0
VERTEX
  8
0
 10
91.4823
 20
878.015
 30
0.0
 40
0.2
 41
0.2
  0
VERTEX
  8
0
 10
91.5141
 20
878
 30
0.0
 40
0.2
 41
0.2
  0
VERTEX
  8
0
 10
91.525
 20
878
 30
0.0
 40
0.2
 41
0.2
  0
VERTEX
  8
0
 10
115.925
 20
878
 30
0.0
 40
0.2
 41
0.2
  0
VERTEX
  8
0
 10
115.941
 20
878
 30
0.0
 40
0.2
 41
0.2
  0
VERTEX
  8
0
 10
115.995
 20
878.029
 30
0.0
 40
0.2
 41
0.2
  0
VERTEX
  8
0
 10
116.025
 20
878.082
 30
0.0
 40
0.2
 41
0.2
  0
VERTEX
  8
0
 10
116.025
 20
878.099
 30
0.0
 40
0.2
 41
0.2
  0
VERTEX
  8
0
 10
116.025
 20
912.499
 30
0.0
 40
0.2
 41
0.2
  0
VERTEX
  8
0
 10
116.025
 20
912.509
 30
0.0
 40
0.2
 41
0.2
  0
VERTEX
  8
0
 10
116.01
 20
912.541
 30
0.0
 40
0.2
 41
0.2
  0
VERTEX
  8
0
 10
115.987
 20
912.537
 30
0.0
 40
0.2
 41
0.2
  0
VERTEX
  8
0
 10
115.983
 20
912.516
 30
0.0
 40
0.2
 41
0.2
  0
VERTEX
  8
0
 10
116.014
 20
912.499
 30
0.0
 40
0.2
 41
0.2
  0
VERTEX
  8
0
 10
116.025
 20
912.499
 30
0.0
 40
0.2
 41
0.2
  0
VERTEX
  8
0
 10
118.925
 20
912.499
 30
0.0
 40
0.2
 41
0.2
  0
VERTEX
  8
0
 10
118.941
 20
912.499
 30
0.0
 40
0.2
 41
0.2
  0
VERTEX
  8
0
 10
118.995
 20
912.53
 30
0.0
 40
0.2
 41
0.2
  0
VERTEX
  8
0
 10
119.025
 20
912.583
 30
0.0
 40
0.2
 41
0.2
  0
VERTEX
  8
0
 10
119.025
 20
912.601
 30
0.0
 40
0.2
 41
0.2
  0
VERTEX
  8
0
 10
119.025
 20
957.601
 30
0.0
 40
0.2
 41
0.2
  0
VERTEX
  8
0
 10
119.025
 20
957.619
 30
0.0
 40
0.2
 41
0.2
  0
VERTEX
  8
0
 10
118.995
 20
957.672
 30
0.0
 40
0.2
 41
0.2
  0
VERTEX
  8
0
 10
118.941
 20
957.7
 30
0.0
 40
0.2
 41
0.2
  0
VERTEX
  8
0
 10
118.925
 20
957.7
 30
0.0
 40
0.2
 41
0.2
  0
VERTEX
  8
0
 10
116.025
 20
957.7
 30
0.0
 40
0.2
 41
0.2
  0
VERTEX
  8
0
 10
116.014
 20
957.7
 30
0.0
 40
0.2
 41
0.2
  0
VERTEX
  8
0
 10
115.983
 20
957.686
 30
0.0
 40
0.2
 41
0.2
  0
VERTEX
  8
0
 10
115.987
 20
957.661
 30
0.0
 40
0.2
 41
0.2
  0
VERTEX
  8
0
 10
116.01
 20
957.658
 30
0.0
 40
0.2
 41
0.2
  0
VERTEX
  8
0
 10
116.025
 20
957.689
 30
0.0
 40
0.2
 41
0.2
  0
VERTEX
  8
0
 10
116.025
 20
957.7
 30
0.0
 40
0.2
 41
0.2
  0
VERTEX
  8
0
 10
116.025
 20
992.099
 30
0.0
 40
0.2
 41
0.2
  0
VERTEX
  8
0
 10
116.025
 20
992.117
 30
0.0
 40
0.2
 41
0.2
  0
VERTEX
  8
0
 10
115.995
 20
992.17
 30
0.0
 40
0.2
 41
0.2
  0
VERTEX
  8
0
 10
115.941
 20
992.202
 30
0.0
 40
0.2
 41
0.2
  0
VERTEX
  8
0
 10
115.925
 20
992.202
 30
0.0
 40
0.2
 41
0.2
  0
VERTEX
  8
0
 10
91.525
 20
992.202
 30
0.0
 40
0.2
 41
0.2
  0
VERTEX
  8
0
 10
91.5141
 20
992.202
 30
0.0
 40
0.2
 41
0.2
  0
VERTEX
  8
0
 10
91.4823
 20
992.188
 30
0.0
 40
0.2
 41
0.2
  0
VERTEX
  8
0
 10
91.4866
 20
992.163
 30
0.0
 40
0.2
 41
0.2
  0
VERTEX
  8
0
 10
91.5099
 20
992.159
 30
0.0
 40
0.2
 41
0.2
  0
VERTEX
  8
0
 10
91.525
 20
992.191
 30
0.0
 40
0.2
 41
0.2
  0
VERTEX
  8
0
 10
91.525
 20
992.202
 30
0.0
 40
0.2
 41
0.2
  0
VERTEX
  8
0
 10
91.525
 20
995.101
 30
0.0
 40
0.2
 41
0.2
  0
VERTEX
  8
0
 10
91.525
 20
995.119
 30
0.0
 40
0.2
 41
0.2
  0
VERTEX
  8
0
 10
91.4947
 20
995.172
 30
0.0
 40
0.2
 41
0.2
  0
VERTEX
  8
0
 10
91.4411
 20
995.2
 30
0.0
 40
0.2
 41
0.2
  0
VERTEX
  8
0
 10
91.4245
 20
995.2
 30
0.0
 40
0.2
 41
0.2
  0
VERTEX
  8
0
 10
46.4249
 20
995.2
 30
0.0
 40
0.2
 41
0.2
  0
VERTEX
  8
0
 10
46.4069
 20
995.2
 30
0.0
 40
0.2
 41
0.2
  0
VERTEX
  8
0
 10
46.3543
 20
995.172
 30
0.0
 40
0.2
 41
0.2
  0
VERTEX
  8
0
 10
46.3254
 20
995.119
 30
0.0
 40
0.2
 41
0.2
  0
VERTEX
  8
0
 10
46.3254
 20
995.101
 30
0.0
 40
0.2
 41
0.2
  0
VERTEX
  8
0
 10
46.3254
 20
992.202
 30
0.0
 40
0.2
 41
0.2
  0
VERTEX
  8
0
 10
46.3254
 20
992.191
 30
0.0
 40
0.2
 41
0.2
  0
VERTEX
  8
0
 10
46.3391
 20
992.159
 30
0.0
 40
0.2
 41
0.2
  0
VERTEX
  8
0
 10
46.3628
 20
992.163
 30
0.0
 40
0.2
 41
0.2
  0
VERTEX
  8
0
 10
46.367
 20
992.188
 30
0.0
 40
0.2
 41
0.2
  0
VERTEX
  8
0
 10
46.3352
 20
992.202
 30
0.0
 40
0.2
 41
0.2
  0
VERTEX
  8
0
 10
46.3254
 20
992.202
 30
0.0
 40
0.2
 41
0.2
  0
VERTEX
  8
0
 10
21.9246
 20
992.202
 30
0.0
 40
0.2
 41
0.2
  0
VERTEX
  8
0
 10
21.9067
 20
992.202
 30
0.0
 40
0.2
 41
0.2
  0
VERTEX
  8
0
 10
21.8543
 20
992.17
 30
0.0
 40
0.2
 41
0.2
  0
VERTEX
  8
0
 10
21.8254
 20
992.117
 30
0.0
 40
0.2
 41
0.2
  0
VERTEX
  8
0
 10
21.8254
 20
992.099
 30
0.0
 40
0.2
 41
0.2
  0
VERTEX
  8
0
 10
21.8254
 20
957.7
 30
0.0
 40
0.2
 41
0.2
  0
VERTEX
  8
0
 10
21.8254
 20
957.689
 30
0.0
 40
0.2
 41
0.2
  0
VERTEX
  8
0
 10
21.8392
 20
957.658
 30
0.0
 40
0.2
 41
0.2
  0
VERTEX
  8
0
 10
21.8626
 20
957.661
 30
0.0
 40
0.2
 41
0.2
  0
VERTEX
  8
0
 10
21.8667
 20
957.686
 30
0.0
 40
0.2
 41
0.2
  0
VERTEX
  8
0
 10
21.835
 20
957.7
 30
0.0
 40
0.2
 41
0.2
  0
VERTEX
  8
0
 10
21.8254
 20
957.7
 30
0.0
 40
0.2
 41
0.2
  0
VERTEX
  8
0
 10
18.9246
 20
957.7
 30
0.0
 40
0.2
 41
0.2
  0
VERTEX
  8
0
 10
18.9067
 20
957.7
 30
0.0
 40
0.2
 41
0.2
  0
VERTEX
  8
0
 10
18.8543
 20
957.672
 30
0.0
 40
0.2
 41
0.2
  0
VERTEX
  8
0
 10
18.8254
 20
957.619
 30
0.0
 40
0.2
 41
0.2
  0
VERTEX
  8
0
 10
18.8254
 20
957.601
 30
0.0
 40
0.2
 41
0.2
  0
VERTEX
  8
0
 10
18.8254
 20
912.601
 30
0.0
 40
0.2
 41
0.2
  0
VERTEX
  8
0
 10
18.8254
 20
912.583
 30
0.0
 40
0.2
 41
0.2
  0
VERTEX
  8
0
 10
18.8543
 20
912.53
 30
0.0
 40
0.2
 41
0.2
  0
VERTEX
  8
0
 10
18.9067
 20
912.499
 30
0.0
 40
0.2
 41
0.2
  0
VERTEX
  8
0
 10
18.9246
 20
912.499
 30
0.0
 40
0.2
 41
0.2
  0
VERTEX
  8
0
 10
21.8254
 20
912.499
 30
0.0
 40
0.2
 41
0.2
  0
VERTEX
  8
0
 10
21.835
 20
912.499
 30
0.0
 40
0.2
 41
0.2
  0
VERTEX
  8
0
 10
21.8667
 20
912.516
 30
0.0
 40
0.2
 41
0.2
  0
VERTEX
  8
0
 10
21.8626
 20
912.537
 30
0.0
 40
0.2
 41
0.2
  0
VERTEX
  8
0
 10
21.8392
 20
912.541
 30
0.0
 40
0.2
 41
0.2
  0
VERTEX
  8
0
 10
21.8254
 20
912.509
 30
0.0
 40
0.2
 41
0.2
  0
VERTEX
  8
0
 10
21.8254
 20
912.499
 30
0.0
 40
0.2
 41
0.2
  0
VERTEX
  8
0
 10
21.8254
 20
878.099
 30
0.0
 40
0.2
 41
0.2
  0
VERTEX
  8
0
 10
21.8254
 20
878.082
 30
0.0
 40
0.2
 41
0.2
  0
VERTEX
  8
0
 10
21.8543
 20
878.029
 30
0.0
 40
0.2
 41
0.2
  0
VERTEX
  8
0
 10
21.9067
 20
878
 30
0.0
 40
0.2
 41
0.2
  0
VERTEX
  8
0
 10
21.9246
 20
878
 30
0.0
 40
0.2
 41
0.2
  0
SEQEND
 8
0
  0
POLYLINE
  8
0
 62
     0
 66
     1
 10
0
 20
0
 30
0.0
 70
     1
 40
0.566929
 41
0.566929
  0
VERTEX
  8
0
 10
21.9246
 20
999.698
 30
0.0
 40
0.2
 41
0.2
  0
VERTEX
  8
0
 10
46.3254
 20
999.698
 30
0.0
 40
0.2
 41
0.2
  0
VERTEX
  8
0
 10
46.3352
 20
999.698
 30
0.0
 40
0.2
 41
0.2
  0
VERTEX
  8
0
 10
46.367
 20
999.716
 30
0.0
 40
0.2
 41
0.2
  0
VERTEX
  8
0
 10
46.3628
 20
999.737
 30
0.0
 40
0.2
 41
0.2
  0
VERTEX
  8
0
 10
46.3391
 20
999.74
 30
0.0
 40
0.2
 41
0.2
  0
VERTEX
  8
0
 10
46.3254
 20
999.709
 30
0.0
 40
0.2
 41
0.2
  0
VERTEX
  8
0
 10
46.3254
 20
999.698
 30
0.0
 40
0.2
 41
0.2
  0
VERTEX
  8
0
 10
46.3254
 20
996.798
 30
0.0
 40
0.2
 41
0.2
  0
VERTEX
  8
0
 10
46.3254
 20
996.784
 30
0.0
 40
0.2
 41
0.2
  0
VERTEX
  8
0
 10
46.3543
 20
996.731
 30
0.0
 40
0.2
 41
0.2
  0
VERTEX
  8
0
 10
46.4069
 20
996.7
 30
0.0
 40
0.2
 41
0.2
  0
VERTEX
  8
0
 10
46.4249
 20
996.7
 30
0.0
 40
0.2
 41
0.2
  0
VERTEX
  8
0
 10
91.4245
 20
996.7
 30
0.0
 40
0.2
 41
0.2
  0
VERTEX
  8
0
 10
91.4411
 20
996.7
 30
0.0
 40
0.2
 41
0.2
  0
VERTEX
  8
0
 10
91.4947
 20
996.731
 30
0.0
 40
0.2
 41
0.2
  0
VERTEX
  8
0
 10
91.525
 20
996.784
 30
0.0
 40
0.2
 41
0.2
  0
VERTEX
  8
0
 10
91.525
 20
996.798
 30
0.0
 40
0.2
 41
0.2
  0
VERTEX
  8
0
 10
91.525
 20
999.698
 30
0.0
 40
0.2
 41
0.2
  0
VERTEX
  8
0
 10
91.525
 20
999.709
 30
0.0
 40
0.2
 41
0.2
  0
VERTEX
  8
0
 10
91.5099
 20
999.74
 30
0.0
 40
0.2
 41
0.2
  0
VERTEX
  8
0
 10
91.4866
 20
999.737
 30
0.0
 40
0.2
 41
0.2
  0
VERTEX
  8
0
 10
91.4823
 20
999.716
 30
0.0
 40
0.2
 41
0.2
  0
VERTEX
  8
0
 10
91.5141
 20
999.698
 30
0.0
 40
0.2
 41
0.2
  0
VERTEX
  8
0
 10
91.525
 20
999.698
 30
0.0
 40
0.2
 41
0.2
  0
VERTEX
  8
0
 10
115.925
 20
999.698
 30
0.0
 40
0.2
 41
0.2
  0
VERTEX
  8
0
 10
115.941
 20
999.698
 30
0.0
 40
0.2
 41
0.2
  0
VERTEX
  8
0
 10
115.995
 20
999.73
 30
0.0
 40
0.2
 41
0.2
  0
VERTEX
  8
0
 10
116.025
 20
999.783
 30
0.0
 40
0.2
 41
0.2
  0
VERTEX
  8
0
 10
116.025
 20
999.8
 30
0.0
 40
0.2
 41
0.2
  0
VERTEX
  8
0
 10
116.025
 20
1034.2
 30
0.0
 40
0.2
 41
0.2
  0
VERTEX
  8
0
 10
116.025
 20
1034.21
 30
0.0
 40
0.2
 41
0.2
  0
VERTEX
  8
0
 10
116.01
 20
1034.24
 30
0.0
 40
0.2
 41
0.2
  0
VERTEX
  8
0
 10
115.987
 20
1034.24
 30
0.0
 40
0.2
 41
0.2
  0
VERTEX
  8
0
 10
115.983
 20
1034.21
 30
0.0
 40
0.2
 41
0.2
  0
VERTEX
  8
0
 10
116.014
 20
1034.2
 30
0.0
 40
0.2
 41
0.2
  0
VERTEX
  8
0
 10
116.025
 20
1034.2
 30
0.0
 40
0.2
 41
0.2
  0
VERTEX
  8
0
 10
118.925
 20
1034.2
 30
0.0
 40
0.2
 41
0.2
  0
VERTEX
  8
0
 10
118.941
 20
1034.2
 30
0.0
 40
0.2
 41
0.2
  0
VERTEX
  8
0
 10
118.995
 20
1034.23
 30
0.0
 40
0.2
 41
0.2
  0
VERTEX
  8
0
 10
119.025
 20
1034.28
 30
0.0
 40
0.2
 41
0.2
  0
VERTEX
  8
0
 10
119.025
 20
1034.3
 30
0.0
 40
0.2
 41
0.2
  0
VERTEX
  8
0
 10
119.025
 20
1079.3
 30
0.0
 40
0.2
 41
0.2
  0
VERTEX
  8
0
 10
119.025
 20
1079.32
 30
0.0
 40
0.2
 41
0.2
  0
VERTEX
  8
0
 10
118.995
 20
1079.37
 30
0.0
 40
0.2
 41
0.2
  0
VERTEX
  8
0
 10
118.941
 20
1079.4
 30
0.0
 40
0.2
 41
0.2
  0
VERTEX
  8
0
 10
118.925
 20
1079.4
 30
0.0
 40
0.2
 41
0.2
  0
VERTEX
  8
0
 10
116.025
 20
1079.4
 30
0.0
 40
0.2
 41
0.2
  0
VERTEX
  8
0
 10
116.014
 20
1079.4
 30
0.0
 40
0.2
 41
0.2
  0
VERTEX
  8
0
 10
115.983
 20
1079.39
 30
0.0
 40
0.2
 41
0.2
  0
VERTEX
  8
0
 10
115.987
 20
1079.36
 30
0.0
 40
0.2
 41
0.2
  0
VERTEX
  8
0
 10
116.01
 20
1079.36
 30
0.0
 40
0.2
 41
0.2
  0
VERTEX
  8
0
 10
116.025
 20
1079.39
 30
0.0
 40
0.2
 41
0.2
  0
VERTEX
  8
0
 10
116.025
 20
1079.4
 30
0.0
 40
0.2
 41
0.2
  0
VERTEX
  8
0
 10
116.025
 20
1113.8
 30
0.0
 40
0.2
 41
0.2
  0
VERTEX
  8
0
 10
116.025
 20
1113.82
 30
0.0
 40
0.2
 41
0.2
  0
VERTEX
  8
0
 10
115.995
 20
1113.87
 30
0.0
 40
0.2
 41
0.2
  0
VERTEX
  8
0
 10
115.941
 20
1113.9
 30
0.0
 40
0.2
 41
0.2
  0
VERTEX
  8
0
 10
115.925
 20
1113.9
 30
0.0
 40
0.2
 41
0.2
  0
VERTEX
  8
0
 10
91.525
 20
1113.9
 30
0.0
 40
0.2
 41
0.2
  0
VERTEX
  8
0
 10
91.5141
 20
1113.9
 30
0.0
 40
0.2
 41
0.2
  0
VERTEX
  8
0
 10
91.4823
 20
1113.89
 30
0.0
 40
0.2
 41
0.2
  0
VERTEX
  8
0
 10
91.4866
 20
1113.86
 30
0.0
 40
0.2
 41
0.2
  0
VERTEX
  8
0
 10
91.5099
 20
1113.86
 30
0.0
 40
0.2
 41
0.2
  0
VERTEX
  8
0
 10
91.525
 20
1113.89
 30
0.0
 40
0.2
 41
0.2
  0
VERTEX
  8
0
 10
91.525
 20
1113.9
 30
0.0
 40
0.2
 41
0.2
  0
VERTEX
  8
0
 10
91.525
 20
1116.8
 30
0.0
 40
0.2
 41
0.2
  0
VERTEX
  8
0
 10
91.525
 20
1116.82
 30
0.0
 40
0.2
 41
0.2
  0
VERTEX
  8
0
 10
91.4947
 20
1116.87
 30
0.0
 40
0.2
 41
0.2
  0
VERTEX
  8
0
 10
91.4411
 20
1116.9
 30
0.0
 40
0.2
 41
0.2
  0
VERTEX
  8
0
 10
91.4245
 20
1116.9
 30
0.0
 40
0.2
 41
0.2
  0
VERTEX
  8
0
 10
46.4249
 20
1116.9
 30
0.0
 40
0.2
 41
0.2
  0
VERTEX
  8
0
 10
46.4069
 20
1116.9
 30
0.0
 40
0.2
 41
0.2
  0
VERTEX
  8
0
 10
46.3543
 20
1116.87
 30
0.0
 40
0.2
 41
0.2
  0
VERTEX
  8
0
 10
46.3254
 20
1116.82
 30
0.0
 40
0.2
 41
0.2
  0
VERTEX
  8
0
 10
46.3254
 20
1116.8
 30
0.0
 40
0.2
 41
0.2
  0
VERTEX
  8
0
 10
46.3254
 20
1113.9
 30
0.0
 40
0.2
 41
0.2
  0
VERTEX
  8
0
 10
46.3254
 20
1113.89
 30
0.0
 40
0.2
 41
0.2
  0
VERTEX
  8
0
 10
46.3391
 20
1113.86
 30
0.0
 40
0.2
 41
0.2
  0
VERTEX
  8
0
 10
46.3628
 20
1113.86
 30
0.0
 40
0.2
 41
0.2
  0
VERTEX
  8
0
 10
46.367
 20
1113.89
 30
0.0
 40
0.2
 41
0.2
  0
VERTEX
  8
0
 10
46.3352
 20
1113.9
 30
0.0
 40
0.2
 41
0.2
  0
VERTEX
  8
0
 10
46.3254
 20
1113.9
 30
0.0
 40
0.2
 41
0.2
  0
VERTEX
  8
0
 10
21.9246
 20
1113.9
 30
0.0
 40
0.2
 41
0.2
  0
VERTEX
  8
0
 10
21.9067
 20
1113.9
 30
0.0
 40
0.2
 41
0.2
  0
VERTEX
  8
0
 10
21.8543
 20
1113.87
 30
0.0
 40
0.2
 41
0.2
  0
VERTEX
  8
0
 10
21.8254
 20
1113.82
 30
0.0
 40
0.2
 41
0.2
  0
VERTEX
  8
0
 10
21.8254
 20
1113.8
 30
0.0
 40
0.2
 41
0.2
  0
VERTEX
  8
0
 10
21.8254
 20
1079.4
 30
0.0
 40
0.2
 41
0.2
  0
VERTEX
  8
0
 10
21.8254
 20
1079.39
 30
0.0
 40
0.2
 41
0.2
  0
VERTEX
  8
0
 10
21.8392
 20
1079.36
 30
0.0
 40
0.2
 41
0.2
  0
VERTEX
  8
0
 10
21.8626
 20
1079.36
 30
0.0
 40
0.2
 41
0.2
  0
VERTEX
  8
0
 10
21.8667
 20
1079.39
 30
0.0
 40
0.2
 41
0.2
  0
VERTEX
  8
0
 10
21.835
 20
1079.4
 30
0.0
 40
0.2
 41
0.2
  0
VERTEX
  8
0
 10
21.8254
 20
1079.4
 30
0.0
 40
0.2
 41
0.2
  0
VERTEX
  8
0
 10
18.9246
 20
1079.4
 30
0.0
 40
0.2
 41
0.2
  0
VERTEX
  8
0
 10
18.9067
 20
1079.4
 30
0.0
 40
0.2
 41
0.2
  0
VERTEX
  8
0
 10
18.8543
 20
1079.37
 30
0.0
 40
0.2
 41
0.2
  0
VERTEX
  8
0
 10
18.8254
 20
1079.32
 30
0.0
 40
0.2
 41
0.2
  0
VERTEX
  8
0
 10
18.8254
 20
1079.3
 30
0.0
 40
0.2
 41
0.2
  0
VERTEX
  8
0
 10
18.8254
 20
1034.3
 30
0.0
 40
0.2
 41
0.2
  0
VERTEX
  8
0
 10
18.8254
 20
1034.28
 30
0.0
 40
0.2
 41
0.2
  0
VERTEX
  8
0
 10
18.8543
 20
1034.23
 30
0.0
 40
0.2
 41
0.2
  0
VERTEX
  8
0
 10
18.9067
 20
1034.2
 30
0.0
 40
0.2
 41
0.2
  0
VERTEX
  8
0
 10
18.9246
 20
1034.2
 30
0.0
 40
0.2
 41
0.2
  0
VERTEX
  8
0
 10
21.8254
 20
1034.2
 30
0.0
 40
0.2
 41
0.2
  0
VERTEX
  8
0
 10
21.835
 20
1034.2
 30
0.0
 40
0.2
 41
0.2
  0
VERTEX
  8
0
 10
21.8667
 20
1034.21
 30
0.0
 40
0.2
 41
0.2
  0
VERTEX
  8
0
 10
21.8626
 20
1034.24
 30
0.0
 40
0.2
 41
0.2
  0
VERTEX
  8
0
 10
21.8392
 20
1034.24
 30
0.0
 40
0.2
 41
0.2
  0
VERTEX
  8
0
 10
21.8254
 20
1034.21
 30
0.0
 40
0.2
 41
0.2
  0
VERTEX
  8
0
 10
21.8254
 20
1034.2
 30
0.0
 40
0.2
 41
0.2
  0
VERTEX
  8
0
 10
21.8254
 20
999.8
 30
0.0
 40
0.2
 41
0.2
  0
VERTEX
  8
0
 10
21.8254
 20
999.783
 30
0.0
 40
0.2
 41
0.2
  0
VERTEX
  8
0
 10
21.8543
 20
999.73
 30
0.0
 40
0.2
 41
0.2
  0
VERTEX
  8
0
 10
21.9067
 20
999.698
 30
0.0
 40
0.2
 41
0.2
  0
VERTEX
  8
0
 10
21.9246
 20
999.698
 30
0.0
 40
0.2
 41
0.2
  0
SEQEND
 8
0
  0
ENDSEC
  0
EOF
